<svg xmlns="http://www.w3.org/2000/svg" viewBox="0 0 85.36 83.75"><defs><style>.cls-1{fill:#333;}.cls-2{fill:#fff;}</style></defs><title>behance</title><g id="vimeo"><g id="iyurUH.tif"><path class="cls-1" d="M40,1.46h5a3.19,3.19,0,0,0,.59.15,40,40,0,0,1-.42,79.76A38.45,38.45,0,0,1,17,72.28,39.69,39.69,0,0,1,8.18,21.07C14.3,10.75,23.45,4.48,35.25,2.17,36.83,1.86,38.44,1.69,40,1.46ZM16.1,24.11V57.43c.26,0,.46,0,.66,0,5.64,0,11.27,0,16.91,0A12.1,12.1,0,0,0,36,57.22c3.91-.82,6.82-2.82,7.71-6.93a16.84,16.84,0,0,0,.24-4.2,8.17,8.17,0,0,0-1.48-4.46,5.47,5.47,0,0,0-4.17-2.29l.77-.31a5.5,5.5,0,0,0,3.09-2.73,8.83,8.83,0,0,0-3-10.69,10.64,10.64,0,0,0-5.83-1.51H16.1Zm36.47,23h1c5.1,0,10.19,0,15.29,0,.76,0,1-.24,1-1a41.44,41.44,0,0,0-.37-4.47c-.85-4.33-3.13-7.52-7.62-8.6a17.38,17.38,0,0,0-4.72-.43c-4.28.18-7.78,1.92-9.91,5.8A14.63,14.63,0,0,0,46,50.17a10.44,10.44,0,0,0,7.79,7.47,18.46,18.46,0,0,0,7.93.25,10.54,10.54,0,0,0,5.06-2.18,7.66,7.66,0,0,0,2.79-6.36H63.83c-1.11,3-3.57,4.17-7.19,3.38A5.1,5.1,0,0,1,52.57,47.09Zm12.1-17v-4H51v4Z"/><path class="cls-2" d="M40,1.46c-1.59.23-3.2.4-4.78.71C23.45,4.48,14.3,10.75,8.18,21.07A39.69,39.69,0,0,0,17,72.28a38.45,38.45,0,0,0,28.2,9.09,40,40,0,0,0,.42-79.76,3.19,3.19,0,0,1-.59-.15H82.68V81.72H2.24V1.46Z"/><path class="cls-2" d="M16.1,24.11H33.34a10.64,10.64,0,0,1,5.83,1.51,8.83,8.83,0,0,1,3,10.69A5.5,5.5,0,0,1,39.06,39l-.77.31a5.47,5.47,0,0,1,4.17,2.29,8.17,8.17,0,0,1,1.48,4.46,16.84,16.84,0,0,1-.24,4.2c-.89,4.11-3.8,6.11-7.71,6.93a12.1,12.1,0,0,1-2.32.24c-5.64,0-11.27,0-16.91,0-.2,0-.4,0-.66,0Zm7.62,27.38c3.38,0,6.67,0,10,0a3.16,3.16,0,0,0,3-2.52,6.51,6.51,0,0,0-.09-3.81,3.42,3.42,0,0,0-3.44-2.49H24.46c-.23,0-.46,0-.74,0Zm0-14.06c3.37,0,6.62,0,9.88,0a2,2,0,0,0,1.92-1.74,11.64,11.64,0,0,0,.15-3.38A2.41,2.41,0,0,0,32.89,30H23.71c0,.26,0,.4,0,.54Z"/><path class="cls-2" d="M52.57,47.09a5.1,5.1,0,0,0,4.07,5.64c3.62.79,6.08-.36,7.19-3.38h5.73a7.66,7.66,0,0,1-2.79,6.36,10.54,10.54,0,0,1-5.06,2.18,18.46,18.46,0,0,1-7.93-.25A10.44,10.44,0,0,1,46,50.17a14.63,14.63,0,0,1,1.26-11.73c2.13-3.88,5.63-5.62,9.91-5.8a17.38,17.38,0,0,1,4.72.43c4.49,1.08,6.77,4.27,7.62,8.6a41.44,41.44,0,0,1,.37,4.47c.06.72-.22,1-1,1-5.1,0-10.19,0-15.29,0Zm10.77-4.5c-.15-3.3-2.13-5.19-5.23-5.12s-5.57,2.47-5.57,5.12Z"/><path class="cls-2" d="M64.67,30.12H51v-4H64.67Z"/><path class="cls-1" d="M23.72,51.49v-8.8c.28,0,.51,0,.74,0h8.71a3.42,3.42,0,0,1,3.44,2.49,6.51,6.51,0,0,1,.09,3.81,3.16,3.16,0,0,1-3,2.52C30.39,51.54,27.1,51.49,23.72,51.49Z"/><path class="cls-1" d="M23.67,37.43V30.58c0-.14,0-.28,0-.54h9.18a2.41,2.41,0,0,1,2.73,2.25,11.64,11.64,0,0,1-.15,3.38,2,2,0,0,1-1.92,1.74C30.29,37.47,27,37.43,23.67,37.43Z"/><path d="M63.34,42.59H52.54c0-2.65,2.61-5.05,5.57-5.12S63.19,39.29,63.34,42.59Z"/></g></g></svg>