<svg id="dribble" xmlns="http://www.w3.org/2000/svg" viewBox="0 0 85.36 83.75"><defs><style>.cls-1{fill:#fff;}.cls-2{fill:#333;}</style></defs><title>dribble</title><g id="_5s9W5C.tif" data-name="5s9W5C.tif"><path class="cls-1" d="M82.49,82.25H2.11V1.87H82.49ZM42.34,2a40,40,0,1,0,40,39.91A39.95,39.95,0,0,0,42.34,2Z"/><path class="cls-2" d="M42.34,2a40,40,0,1,1-39.94,40A40,40,0,0,1,42.34,2Zm0,11a29,29,0,1,0,29,29A29,29,0,0,0,42.38,12.92Z"/><path class="cls-1" d="M42.38,12.92A29,29,0,1,1,13.36,42,29,29,0,0,1,42.38,12.92ZM52,64.76c-.41-4-3.87-16.2-5.28-18.7C40.09,47.37,29.17,56,27.24,61.47A24.35,24.35,0,0,0,52,64.76Zm-28.1-6.29c5.23-7.92,12-13.79,21.19-16.67l-2-4.17A92.89,92.89,0,0,1,17.58,41.2,25,25,0,0,0,23.89,58.47ZM32,19.52c-6.63,2.65-13.9,11.93-13.7,17.33a93.25,93.25,0,0,0,22.88-3.09ZM58.7,23.33C52,17.24,42.47,16.11,36.8,17.9L46,32.21C50.49,30.84,56.73,26.51,58.7,23.33Zm2.86,2.9C57.82,30.78,53,33.75,47.76,36c.68,1.53,1.29,3,2,4.41a1,1,0,0,0,.81.38A52.24,52.24,0,0,1,62.73,41c1.45.17,2.89.4,4.44.62A24.84,24.84,0,0,0,61.56,26.23Zm5.31,19.65a36,36,0,0,0-15.21-1.11c1.62,5.91,3.21,11.74,4.81,17.59A24.92,24.92,0,0,0,66.87,45.88Z"/><path class="cls-2" d="M52,64.76a24.35,24.35,0,0,1-24.75-3.29C29.17,56,40.09,47.37,46.71,46.06,48.12,48.56,51.58,60.8,52,64.76Z"/><path class="cls-2" d="M23.89,58.47A25,25,0,0,1,17.58,41.2a92.89,92.89,0,0,0,25.49-3.57l2,4.17C35.88,44.68,29.12,50.55,23.89,58.47Z"/><path class="cls-2" d="M32,19.52l9.18,14.24a93.25,93.25,0,0,1-22.88,3.09C18.09,31.45,25.36,22.17,32,19.52Z"/><path class="cls-2" d="M58.7,23.33c-2,3.18-8.21,7.51-12.73,8.88L36.8,17.9C42.47,16.11,52,17.24,58.7,23.33Z"/><path class="cls-2" d="M61.56,26.23a24.84,24.84,0,0,1,5.61,15.4c-1.55-.22-3-.45-4.44-.62a52.24,52.24,0,0,0-12.18-.21,1,1,0,0,1-.81-.38c-.69-1.42-1.3-2.88-2-4.41C53,33.75,57.82,30.78,61.56,26.23Z"/><path class="cls-2" d="M66.87,45.88a24.92,24.92,0,0,1-10.4,16.48c-1.6-5.85-3.19-11.68-4.81-17.59A36,36,0,0,1,66.87,45.88Z"/></g></svg>