<svg xmlns="http://www.w3.org/2000/svg" xmlns:xlink="http://www.w3.org/1999/xlink" viewBox="0 0 408 539"><defs><style>.cls-1{clip-path:url(#clip-path);}.cls-2{fill:#ff1d25;}.cls-3{font-size:23.78px;}.cls-10,.cls-3,.cls-7{font-family:BebasNeue-Regular, Bebas Neue;}.cls-4,.cls-7{fill:#fff;}.cls-11,.cls-5,.cls-6{fill:none;stroke:#000;stroke-miterlimit:10;}.cls-5,.cls-6{stroke-width:0.25px;}.cls-6{stroke-dasharray:4 4;}.cls-7{font-size:31.72px;}.cls-8{letter-spacing:0em;}.cls-9{letter-spacing:0em;}.cls-10{font-size:21.13px;}.cls-11{stroke-width:0.5px;}</style><clipPath id="clip-path"><path d="M263.42,284.32V217c0-20.49,10.79-32.19,30.54-32.19s30.55,11.7,30.55,32.19v67.31c0,20.48-10.79,32.19-30.55,32.19S263.42,304.8,263.42,284.32Zm41,1.28V215.73c0-9.15-4-12.62-10.43-12.62s-10.42,3.47-10.42,12.62V285.6c0,9.14,4,12.62,10.42,12.62S304.39,294.74,304.39,285.6Z"/></clipPath></defs><title>home</title><g id="Layer_2" data-name="Layer 2"><path d="M190.25,284.32V217c0-20.49,10.8-32.19,30.55-32.19s30.55,11.7,30.55,32.19v67.31c0,20.48-10.8,32.19-30.55,32.19S190.25,304.8,190.25,284.32Zm41,1.28V215.73c0-9.15-4-12.62-10.43-12.62s-10.42,3.47-10.42,12.62V285.6c0,9.14,4,12.62,10.42,12.62S231.23,294.74,231.23,285.6Z"/><path d="M263.42,284.32V217c0-20.49,10.79-32.19,30.54-32.19s30.55,11.7,30.55,32.19v67.31c0,20.48-10.79,32.19-30.55,32.19S263.42,304.8,263.42,284.32Zm41,1.28V215.73c0-9.15-4-12.62-10.43-12.62s-10.42,3.47-10.42,12.62V285.6c0,9.14,4,12.62,10.42,12.62S304.39,294.74,304.39,285.6Z"/><g class="cls-1"><rect class="cls-2" x="-42" y="-23" width="671" height="763"/></g><text class="cls-3" transform="translate(234.48 169.96)">16:54</text><rect class="cls-4" x="202" y="3" width="50" height="38"/><rect x="2" y="441" width="124" height="39"/><rect x="265.5" y="53.5" width="22" height="22"/><rect x="386" y="173" width="4" height="182"/><rect x="254" y="458" width="4" height="77"/><polygon points="175 150 154 150 150 150 150 154 150 175 154 175 154 154 175 154 175 150"/><polygon points="330 366 351 366 355 366 355 362 355 341 351 341 351 362 330 362 330 366"/><circle class="cls-5" cx="258.47" cy="256.63" r="137.57"/><circle class="cls-6" cx="257.77" cy="257.25" r="145.25"/><text class="cls-7" transform="translate(24.98 471.96)">M<tspan class="cls-8" x="17.06" y="0">O</tspan><tspan class="cls-9" x="29.62" y="0">TION</tspan></text><text class="cls-10" transform="translate(209.8 31.52)">HTML</text><rect class="cls-11" x="33.19" y="62.07" width="37.31" height="37.31"/></g></svg>