<?xml version="1.0" encoding="utf-8"?>
<!-- Generator: Adobe Illustrator 24.0.3, SVG Export Plug-In . SVG Version: 6.00 Build 0)  -->
<svg version="1.1" id="Layer_1" xmlns="http://www.w3.org/2000/svg" xmlns:xlink="http://www.w3.org/1999/xlink" x="0px" y="0px"
	 viewBox="0 0 126 110" style="enable-background:new 0 0 126 110;" xml:space="preserve">
<style type="text/css">
	.st0{fill:#FFFFFF;}
</style>
<circle cx="63" cy="53.2" r="45.1"/>
<title>logo</title>
<g id="colorpallete">
	<path class="st0" d="M59,46c0.8-1,1.2-2.4,1.2-4.3c0-2.1-0.4-3.8-1.3-5c-0.8-1.2-2-2-3.4-2.4c-1.7-0.5-3.4-0.7-5.1-0.6h-8v13.1
		h15.8C58.5,46.6,58.7,46.3,59,46z M53.4,45.1c-0.5,0.7-1.5,1-2.9,1h-1.3v-7.7h1.2c1-0.1,2.1,0.3,2.9,0.9c0.7,0.7,1.1,1.7,1,2.8
		C54.2,43.4,54,44.4,53.4,45.1z"/>
	<path class="st0" d="M48.2,51.4h1.4c1.5,0,2.5,0.4,3.1,1.1c0.4,0.6,0.7,1.2,0.7,1.9h6.6c-0.1-1.2-0.6-2.3-1.3-3.3
		c-1-1.3-2.5-2.1-4.1-2.3c0.9-0.2,1.8-0.6,2.5-1.1H41.5v6.6h6.8V51.4z"/>
	<path class="st0" d="M54.4,55.3c0.1,0.6,0.2,1.2,0.2,1.8c0,1.5-0.3,2.7-0.9,3.4c-0.6,0.7-1.6,1.1-3.1,1.1h-1.4v-6.3h-6.8v11h9.5
		c6.2,0,9.3-3,9.3-9.1c0-0.6-0.1-1.3-0.2-1.9H54.4z"/>
	<polygon class="st0" points="82.8,46 77.4,46 77.4,38.4 84.5,38.4 84.5,33.7 70.6,33.7 70.6,46.9 82.8,46.9 	"/>
	<polygon class="st0" points="76.5,51.6 81.9,51.6 81.9,47.8 71.6,47.8 71.6,54.4 76.5,54.4 	"/>
	<polygon class="st0" points="77.4,55.3 70.6,55.3 70.6,66.3 84.5,66.3 84.5,61.7 77.4,61.7 	"/>
	<rect x="42.4" y="68.2" class="st0" width="42" height="4.6"/>
	<path class="st0" d="M73.4,47.8h-2.8c-0.2,2.3-0.8,4.5-1.9,6.6h4.7V47.8z"/>
</g>
<g id="colorpallete_1_">
	<path d="M52.4-100.6c1.4-1.8,2.1-4.3,2.1-7.6c0-3.8-0.8-6.8-2.3-8.9c-1.5-2.1-3.6-3.6-6-4.3c-3-0.8-6-1.2-9.1-1.1H22.9v23.3h28
		C51.5-99.6,52-100.1,52.4-100.6z M42.6-102.4c-0.9,1.2-2.7,1.8-5.2,1.8H35v-13.8h2.1c1.9-0.1,3.7,0.5,5.1,1.7
		c1.3,1.3,1.9,3.1,1.8,4.9C44-105.3,43.5-103.5,42.6-102.4z"/>
	<path d="M33.4-91h2.5c2.6,0,4.4,0.6,5.5,1.9c0.7,1,1.2,2.1,1.3,3.3h11.6c-0.3-2.1-1-4.1-2.2-5.8c-1.7-2.3-4.3-3.8-7.2-4
		c1.6-0.3,3.1-1,4.4-2h-28v11.8h12V-91z"/>
	<path d="M44.3-84.2c0.2,1.1,0.3,2.1,0.3,3.2c0,2.7-0.5,4.7-1.6,6c-1.1,1.3-2.9,1.9-5.4,1.9H35v-11.1H22.9v19.6h16.8
		c11,0,16.5-5.4,16.5-16.2c0-1.1-0.1-2.3-0.3-3.4H44.3z"/>
	<polygon points="94.7,-100.7 85.2,-100.7 85.2,-114.2 97.6,-114.2 97.6,-122.4 73.1,-122.4 73.1,-99.1 94.7,-99.1 	"/>
	<polygon points="83.6,-90.7 93.1,-90.7 93.1,-97.5 74.7,-97.5 74.7,-85.8 83.6,-85.8 	"/>
	<polygon points="85.2,-84.2 73.1,-84.2 73.1,-64.6 97.8,-64.6 97.8,-72.8 85.2,-72.8 	"/>
	<rect x="23" y="-61.3" width="74.5" height="8.1"/>
	<path d="M78.1-97.5h-5c-0.4,4.1-1.5,8.1-3.3,11.7h8.3V-97.5z"/>
</g>
</svg>
