<svg xmlns="http://www.w3.org/2000/svg" viewBox="0 0 126 110"><title>logo</title><g id="colorpallete"><path d="M52.44,40.83c1.39-1.8,2.09-4.31,2.09-7.55,0-3.81-.77-6.78-2.29-8.89a11.21,11.21,0,0,0-6-4.28A32.18,32.18,0,0,0,37.15,19H22.93V42.3h28A8.69,8.69,0,0,0,52.44,40.83Zm-9.87-1.75q-1.38,1.76-5.22,1.75H35V27.08h2.09a7.22,7.22,0,0,1,5.12,1.66A6.37,6.37,0,0,1,44,33.62Q44,37.33,42.57,39.08Z"/><path d="M33.37,50.4h2.49q3.91,0,5.5,1.89a7.06,7.06,0,0,1,1.31,3.34H54.32a12.93,12.93,0,0,0-2.22-5.77,10.12,10.12,0,0,0-7.21-4,9.93,9.93,0,0,0,4.43-2h-28V55.63H33.37Z"/><path d="M44.29,57.25a18.54,18.54,0,0,1,.27,3.19q0,4.11-1.59,6t-5.42,1.92H35V57.25H22.93V76.81H39.71q16.5,0,16.5-16.17a21.14,21.14,0,0,0-.28-3.39Z"/><polygon points="94.68 40.76 85.18 40.76 85.18 27.22 97.64 27.22 97.64 19 73.12 19 73.12 42.3 94.68 42.3 94.68 40.76"/><polygon points="83.56 50.74 93.06 50.74 93.06 43.92 74.74 43.92 74.74 55.63 83.56 55.63 83.56 50.74"/><polygon points="85.18 57.25 73.12 57.25 73.12 76.81 97.78 76.81 97.78 68.66 85.18 68.66 85.18 57.25"/><rect x="23.05" y="80.14" width="74.47" height="8.09"/><path d="M78.09,43.92h-5a32.51,32.51,0,0,1-3.34,11.71h8.34Z"/></g></svg>