<svg xmlns="http://www.w3.org/2000/svg" viewBox="0 0 436 492"><defs><style>.cls-1{fill:#03843d;}.cls-2{fill:#009245;}.cls-3{fill:none;stroke:#ddb63a;stroke-miterlimit:10;stroke-width:0.5px;}.cls-4{fill:#f2f2f2;}.cls-5{fill:#fff;}.cls-6{fill:#ddb63a;}.cls-7{fill:#71bed3;}.cls-8{fill:#80ccdd;}.cls-9{fill:#5fb1c4;}.cls-10{fill:#60adbf;}.cls-11{fill:#78c4d6;}.cls-12{fill:#76c2d3;}.cls-13{fill:#e6e6e6;}.cls-14{fill:#e29886;}.cls-15{fill:#d88e80;}.cls-16{fill:#f9f9f9;}.cls-17{fill:#333;}.cls-18{fill:#1a1a1a;}.cls-19{fill:#2d2d2d;}.cls-20{fill:#3f3f3f;}.cls-21{fill:#151316;}.cls-22{fill:#eaa18b;}.cls-23{fill:#f9897a;}.cls-24{fill:#ef8075;}.cls-25{fill:#d38975;}.cls-26{fill:#f2b1a2;}.cls-27{fill:#eda594;}.cls-28{fill:#d88977;}.cls-29{fill:#efeeea;}</style></defs><title>me</title><g id="space"><path class="cls-1" d="M130.78,255.77l-2.07,16.11a112.74,112.74,0,0,0-22.2,10.64l-8-5.5,1.38,9.85A164.14,164.14,0,0,0,85,298.66l-6.9-7A161.52,161.52,0,0,1,130.78,255.77Z"/><path class="cls-1" d="M80.93,302.36a238.07,238.07,0,0,0-39,48.45C44.73,343,55.82,314.56,78,291.76Z"/><path class="cls-1" d="M162.73,266l-21.16,2.54-10.16-13c9.91-4.17,24.13-7,36.77-9.44Z"/><path class="cls-2" d="M42,350.81l-.47.81C43.35,330.7,52,312.05,63.74,295.87l4.75,1.8-2.91-4.27A168.86,168.86,0,0,1,77.7,279.18l6.21,2.35-3.51-5.14a223.54,223.54,0,0,1,20-17.84l8.47,7-3.1-11.12a285.4,285.4,0,0,1,52-31.11c8-3,15,5.9,15,5.9l-4.61,16.88c-12.64,2.43-26.86,5.27-36.77,9.44l-.51-.65-.12.91a161.52,161.52,0,0,0-52.7,35.94l-.08-.08,0,.13C55.82,314.56,44.73,343,42,350.81Z"/><path class="cls-2" d="M78,291.63l.08.08,0,.05Z"/><path class="cls-2" d="M131.41,255.51l-.63.26.12-.91Z"/><path class="cls-1" d="M153,291.4l5.83,15.16a112.3,112.3,0,0,0-14.5,19.9l-9.66-1,5.88,8a162.48,162.48,0,0,0-7.51,17.44L123.69,348A161.56,161.56,0,0,1,153,291.4Z"/><path class="cls-1" d="M131.25,356.06A237.46,237.46,0,0,0,120,417.19c-1.27-8.16-5-38.48,3.72-69.09Z"/><path class="cls-1" d="M186,285.21l-17.42,12.28-15.12-6.62c6.75-8.37,17.92-17.62,27.89-25.76Z"/><path class="cls-2" d="M120,417.19c0,.6,0,.93,0,.93-8.31-19.28-9.57-39.79-6.88-59.61l5-.67-4.6-2.39a171.23,171.23,0,0,1,3.93-18.26l6.58-.88-5.53-2.87a222.2,222.2,0,0,1,9.12-25.17l10.76,2.12-8-8.32a285.46,285.46,0,0,1,31-52.07c5.65-6.41,16-1.93,16-1.93l3.94,17c-10,8.14-21.14,17.39-27.89,25.76l-.76-.33.33.86A161.56,161.56,0,0,0,123.69,348l-.11,0,.09.1C114.92,378.71,118.68,409,120,417.19Z"/><path class="cls-2" d="M123.58,348l.11,0,0,.06Z"/><path class="cls-2" d="M153.45,290.87l-.43.53-.33-.86Z"/><path class="cls-1" d="M189.51,312.21l12.32,10.58a112.06,112.06,0,0,0-3.32,24.39l-9,3.68,9,4.26A162.82,162.82,0,0,0,200.15,374L190.56,376A161.46,161.46,0,0,1,189.51,312.21Z"/><path class="cls-1" d="M201,379.46a237.58,237.58,0,0,0,19.06,59.17c-5-6.58-22.68-31.49-29.51-62.58Z"/><path class="cls-1" d="M215.59,291.12l-9.51,19.07-16.44,1.35c2-10.57,7.41-24,12.33-35.91Z"/><path class="cls-2" d="M220.08,438.63l.41.84c-16.46-13-27.3-30.49-34.34-49.22l4.12-3-5.18.08a171.28,171.28,0,0,1-5.21-17.94l5.38-3.89-6.23.1a224.57,224.57,0,0,1-3.92-26.49l10.48-3.24-11-3.53a285.36,285.36,0,0,1,2.63-60.56c1.93-8.32,13.18-9.3,13.18-9.3L202,275.63c-4.92,11.9-10.37,25.34-12.33,35.91l-.83.06.7.61A161.46,161.46,0,0,0,190.56,376l-.12,0,.13.05C197.4,407.14,215.08,432.05,220.08,438.63Z"/><path class="cls-2" d="M190.44,376l.12,0v.07Z"/><path class="cls-2" d="M189.64,311.54c0,.22-.09.44-.13.67l-.7-.61Z"/><path class="cls-1" d="M231.5,313.21l15.87,3.47A111.64,111.64,0,0,0,256,339.73l-6.18,7.51,9.93-.51a162,162,0,0,0,10.44,15.86l-7.53,6.27A161.44,161.44,0,0,1,231.5,313.21Z"/><path class="cls-1" d="M273.54,367a237.32,237.32,0,0,0,44.85,43c-7.52-3.42-34.91-17-55.67-41.09Z"/><path class="cls-1" d="M244.46,282.28l.67,21.3-13.83,9c-3.29-10.23-4.87-24.65-6.19-37.45Z"/><path class="cls-2" d="M318.39,410l.76.54c-20.68-3.66-38.5-13.89-53.58-27l2.21-4.58-4.52,2.53a171.37,171.37,0,0,1-13.1-13.32l2.89-6-5.43,3a224.17,224.17,0,0,1-16-21.46l7.69-7.82L227.94,338a285.21,285.21,0,0,1-26.42-54.56c-2.25-8.24,7.19-14.44,7.19-14.44l16.4,6.08c1.32,12.8,2.9,27.22,6.19,37.45l-.7.45.9.2a161.44,161.44,0,0,0,31.18,55.65l-.09.07.13,0C283.48,393,310.87,406.58,318.39,410Z"/><path class="cls-2" d="M262.59,368.93l.09-.07,0,.05Z"/><path class="cls-2" d="M231.3,312.56c.07.22.13.44.2.65l-.9-.2Z"/><path class="cls-1" d="M268.94,294.18l15.62-4.47a112.26,112.26,0,0,0,18.54,16.18l-1.87,9.54,8.5-5.16a162.14,162.14,0,0,0,16.71,9l-3.65,9.09A161.56,161.56,0,0,1,268.94,294.18Z"/><path class="cls-1" d="M331.45,321.54a238,238,0,0,0,59.9,16.62c-8.25.55-38.78,1.63-68.5-9.77Z"/><path class="cls-1" d="M265.67,260.8l10.7,18.43-7.92,14.47c-7.75-7.45-16-19.39-23.21-30Z"/><path class="cls-2" d="M391.35,338.16l.92.11c-19.94,6.59-40.48,6-60,1.63l-.22-5.08-2.78,4.37a170.84,170.84,0,0,1-17.85-5.52l-.29-6.63-3.35,5.26A225.68,225.68,0,0,1,283.52,321l3.05-10.53-9,7.23a285.48,285.48,0,0,1-49.14-35.49c-5.89-6.19-.52-16.13-.52-16.13l17.32-2.43c7.24,10.65,15.46,22.59,23.21,30l-.39.73.88-.25a161.56,161.56,0,0,0,53.85,34.19l-.05.11.11-.09C352.57,339.79,383.1,338.71,391.35,338.16Z"/><path class="cls-2" d="M322.74,328.48l.05-.11.06,0Z"/><path class="cls-2" d="M268.45,293.7l.49.48-.88.25Z"/><path class="cls-1" d="M292.87,259.66l11.63-11.35a112.28,112.28,0,0,0,24,5.45l2.87,9.29,5-8.58a162.59,162.59,0,0,0,19,0l1.09,9.73A161.58,161.58,0,0,1,292.87,259.66Z"/><path class="cls-1" d="M360.88,254.09a237.69,237.69,0,0,0,60.61-13.79c-7,4.4-33.36,19.83-64.93,23.9Z"/><path class="cls-1" d="M274.15,231.82,292.32,243l-.1,16.5C281.86,256.59,269,250,257.53,244Z"/><path class="cls-2" d="M421.49,240.3l.87-.34c-14.43,15.26-32.77,24.52-52,29.89l-2.61-4.36-.37,5.16A171.08,171.08,0,0,1,349,274.27l-3.41-5.7-.44,6.21a223.2,223.2,0,0,1-26.73,1.58l-2.31-10.72-4.48,10.64a285.81,285.81,0,0,1-60.1-7.93c-8.12-2.66-8.11-14-8.11-14L257.53,244c11.42,5.94,24.33,12.55,34.69,15.43v.83l.66-.64a161.58,161.58,0,0,0,63.62,4.55v.11l.06-.12C388.13,260.13,414.49,244.7,421.49,240.3Z"/><path class="cls-2" d="M356.5,264.32v-.11h.07Z"/><path class="cls-2" d="M292.22,259.47l.65.19-.66.64Z"/><path class="cls-1" d="M297.56,217.92l4.85-15.51a111.19,111.19,0,0,0,23.71-6.59l6.94,6.81.36-9.94a161.75,161.75,0,0,0,16.72-9l5.58,8.05A161.64,161.64,0,0,1,297.56,217.92Z"/><path class="cls-1" d="M354.78,180.75a237.37,237.37,0,0,0,46.82-40.9c-4.08,7.2-20,33.29-45.82,51.85Z"/><path class="cls-1" d="M267.88,202.29l21.27,1.2,7.74,14.57c-10.49,2.38-25,2.68-37.85,2.87Z"/><path class="cls-2" d="M401.6,139.85l.6-.7c-5.47,20.27-17.21,37.13-31.63,51l-4.36-2.61,2.12,4.72a168.94,168.94,0,0,1-14.42,11.88l-5.71-3.4,2.56,5.68A221.26,221.26,0,0,1,328,220.49l-7.12-8.34,1.1,11.49a284.6,284.6,0,0,1-56.66,21.53c-8.41,1.52-13.76-8.43-13.76-8.43l7.5-15.81c12.87-.19,27.36-.49,37.85-2.87l.39.74.28-.88a161.64,161.64,0,0,0,58.16-26.18l.07.1v-.14C381.64,173.14,397.52,147.05,401.6,139.85Z"/><path class="cls-2" d="M355.79,191.84l-.07-.1.06,0Z"/><path class="cls-2" d="M296.89,218.06l.67-.14-.28.88Z"/><path class="cls-1" d="M281.88,179,278.79,163A111.93,111.93,0,0,0,296.54,146l9.34,2.7-4.4-8.92a161.69,161.69,0,0,0,10.45-15.86l8.73,4.44A161.32,161.32,0,0,1,281.88,179Z"/><path class="cls-1" d="M314.62,119.09a237.77,237.77,0,0,0,21.81-58.22c-.17,8.27-1.78,38.77-15.74,67.38Z"/><path class="cls-1" d="M248.34,179.28l19.3-9,13.72,9.15c-8.1,7.07-20.72,14.22-32,20.49Z"/><path class="cls-2" d="M336.43,60.87c.13-.58.19-.91.19-.91,4.81,20.44,2.47,40.86-3.64,59.9l-5.08-.22,4.11,3.15a172.17,172.17,0,0,1-7.06,17.3l-6.63-.29,4.94,3.79a223.44,223.44,0,0,1-13.38,23.19l-10.22-4,6.42,9.59a285.42,285.42,0,0,1-39.67,45.84c-6.68,5.32-16.1-.9-16.1-.9l-.91-17.47c11.24-6.27,23.86-13.42,32-20.49l.69.46-.17-.9a161.32,161.32,0,0,0,38.78-50.64l.11.05-.08-.11C334.65,99.64,336.26,69.14,336.43,60.87Z"/><path class="cls-2" d="M320.77,128.36l-.11-.05,0-.06Z"/><path class="cls-2" d="M281.36,179.39l.52-.44.17.9Z"/><path class="cls-1" d="M249.59,152.09l-10.28-12.58a112.5,112.5,0,0,0,7.53-23.43l9.51-2-8.11-5.77a163.24,163.24,0,0,0,1.68-18.92l9.79-.23A161.58,161.58,0,0,1,249.59,152.09Z"/><path class="cls-1" d="M250,83.85a237.63,237.63,0,0,0-8.42-61.59c3.77,7.36,16.83,35,18.11,66.78Z"/><path class="cls-1" d="M220.22,168.29l12.7-17.12,16.43,1.55c-3.78,10.07-11.5,22.34-18.42,33.2Z"/><path class="cls-2" d="M241.59,22.26c-.16-.57-.26-.89-.26-.89,13.93,15.71,21.55,34.79,25.21,54.46L262,78l5.11.83a169.33,169.33,0,0,1,2,18.57l-6,2.9,6.15,1a222.37,222.37,0,0,1-.77,26.76l-10.88,1.36,10.2,5.4A284.94,284.94,0,0,1,254.62,194c-3.36,7.85-14.6,6.85-14.6,6.85l-9.09-15c6.92-10.86,14.64-23.13,18.42-33.2l.82.08-.58-.71a161.58,161.58,0,0,0,10.12-63h.11L259.7,89C258.42,57.23,245.36,29.62,241.59,22.26Z"/><path class="cls-2" d="M259.82,89.11h-.11V89Z"/><path class="cls-2" d="M249.35,152.72l.24-.63.58.71Z"/><path class="cls-1" d="M208.42,143.76l-15-6.2a111.93,111.93,0,0,0-4.49-24.2l7.39-6.31-9.87-1.23a161.32,161.32,0,0,0-7.5-17.45l8.51-4.85A161.46,161.46,0,0,1,208.42,143.76Z"/><path class="cls-1" d="M176.42,83.49a237.41,237.41,0,0,0-36.63-50.22c6.81,4.69,31.4,22.8,47.62,50.19Z"/><path class="cls-1" d="M190.26,172l3.06-21.09,15.19-6.43c1.45,10.66.48,25.12-.46,38Z"/><path class="cls-2" d="M139.79,33.27c-.42-.43-.66-.66-.66-.66,19.72,7.22,35.49,20.4,48,36l-3,4.13,4.89-1.7a170.79,170.79,0,0,1,10.57,15.4l-3.89,5.39,5.88-2a225.76,225.76,0,0,1,12,23.92L204.72,120l11.55-.09a285.37,285.37,0,0,1,16.48,58.34c.77,8.51-9.61,13-9.61,13l-15.09-8.85c.94-12.84,1.91-27.3.46-38l.76-.32-.85-.35a161.46,161.46,0,0,0-21-60.24l.1-.06h-.14C171.19,56.07,146.6,38,139.79,33.27Z"/><path class="cls-2" d="M187.55,83.46l-.1.06,0-.06Z"/><path class="cls-2" d="M208.51,144.43l-.09-.67.85.35Z"/><path class="cls-1" d="M168.23,156l-16.16,1.68a111.63,111.63,0,0,0-15.43-19.18l3.52-9.06L130.88,133A162.7,162.7,0,0,0,116,121.18l5.19-8.3A161.62,161.62,0,0,1,168.23,156Z"/><path class="cls-1" d="M111.47,118.09A237,237,0,0,0,55.39,91.26c8.22.89,38.47,5.17,65.74,21.58Z"/><path class="cls-1" d="M165.62,189.39l-7.32-20,10.33-12.87c6.33,8.69,12.34,21.88,17.6,33.63Z"/><path class="cls-2" d="M55.39,91.26,54.5,91c20.79-3,40.92,1.13,59.35,8.89l-.66,5,3.5-3.82a172.18,172.18,0,0,1,16.61,8.55l-.87,6.58,4.21-4.59A224.32,224.32,0,0,1,158.57,127l-4.85,9.84,10.12-5.56A285,285,0,0,1,206,174.81c4.72,7.12-2.31,16-2.31,16l-17.48-.63C181,178.39,175,165.2,168.63,156.51l.52-.65-.92.09a161.62,161.62,0,0,0-47-43.07l.06-.1-.12.06C93.86,96.43,63.61,92.15,55.39,91.26Z"/><path class="cls-2" d="M121.25,112.78l-.06.1-.06,0Z"/><path class="cls-2" d="M168.63,156.51l-.4-.56.92-.09Z"/><path class="cls-1" d="M138.64,185.76l-13.43,9.14a112.15,112.15,0,0,0-22.68-9.56l-1.21-9.65-6.46,7.57a164.79,164.79,0,0,0-18.69-3.33l.62-9.77A161.45,161.45,0,0,1,138.64,185.76Z"/><path class="cls-1" d="M70.71,179.35a237.85,237.85,0,0,0-62.1,3c7.66-3.11,36.32-13.69,68.11-12.18Z"/><path class="cls-1" d="M152.2,216.44l-15.93-14.15,3-16.23c9.7,4.65,21.25,13.41,31.45,21.25Z"/><path class="cls-2" d="M8.61,182.34l-.91.18C24.57,170,44.25,164.1,64.16,162.19L66,166.94l1.26-5a171.61,171.61,0,0,1,18.68-.36l2.36,6.21,1.53-6a223.91,223.91,0,0,1,26.59,3.12l.4,11,6.27-9.69a284.86,284.86,0,0,1,57.79,18.31c7.53,4,5.54,15.15,5.54,15.15l-15.69,7.73c-10.2-7.84-21.75-16.6-31.45-21.25l.15-.82-.76.52a161.45,161.45,0,0,0-61.85-15.6V170l-.08.12C44.93,168.65,16.27,179.23,8.61,182.34Z"/><path class="cls-2" d="M76.8,170v.12h-.07Z"/><path class="cls-2" d="M139.25,186.06l-.61-.3.76-.52Z"/><path class="cls-1" d="M126.73,226l-7.49,14.42a111.72,111.72,0,0,0-24.5,2.34l-5.64-7.92L87,244.61a161.4,161.4,0,0,0-18,5.94l-4.09-8.9A161.48,161.48,0,0,1,126.73,226Z"/><path class="cls-1" d="M63.89,252.63a237.3,237.3,0,0,0-53.24,32.09c5.26-6.37,25.46-29.29,54.17-43Z"/><path class="cls-1" d="M153.22,246.61l-20.74-4.9L127.41,226c10.74-.51,25.07,1.73,37.77,3.79Z"/><path class="cls-2" d="M10.65,284.72l-.72.59c8.92-19,23.43-33.55,40.05-44.69L53.83,244l-1.27-5a170.85,170.85,0,0,1,16.27-9.18l5,4.35-1.52-6a224.77,224.77,0,0,1,24.88-9.88l5.55,9.46.93-11.51a285.54,285.54,0,0,1,59.56-11.29c8.54,0,12.06,10.71,12.06,10.71L165.18,229.8c-12.7-2.06-27-4.3-37.77-3.79l-.26-.79-.42.82a161.48,161.48,0,0,0-61.85,15.61l0-.11,0,.14C36.11,255.43,15.91,278.35,10.65,284.72Z"/><path class="cls-2" d="M64.84,241.54l0,.11-.06,0Z"/><path class="cls-2" d="M127.41,226l-.68,0,.42-.82Z"/><circle class="cls-3" cx="219.5" cy="238.5" r="132"/></g><g id="illustratie-home"><path class="cls-4" d="M168.84,166.25H114.59c9.35,5.6,17.62,16.49,18.41,26.75,0,2,5,7,8,11,3,5-7,12-6,15,3,12,25,23,8,35-3,3,2,5,0,8-3,4-7,3-11,5-3,2-5,9-9,9-10.45,0-18.34,5.12-26.45,10.34h57.54Z"/><path class="cls-5" d="M132,267c4-2,8-1,11-5,2-3-3-5,0-8,17-12-5-23-8-35-1-3,9-10,6-15-3-4-8-9-8-11-.79-10.26-9.06-21.15-18.41-26.75H65.91L51.15,286.34h45.4c8.11-5.22,16-10.34,26.45-10.34C127,276,129,269,132,267ZM96,200.56h34.32l-1,8.58H95ZM90.7,243.45H125L124,252H89.67Z"/><path class="cls-4" d="M177.42,166.25H280.35L265.6,286.34H231.29l3.17-25.73H200.15L197,286.34H162.66Zm30.11,34.31-3.18,25.73h34.31l3.18-25.73Z"/><path class="cls-4" d="M301,227c-4-2,2-7,3-10,2-7-1-13,2-21,4.07-8.15-4.46-22.93,2.51-29.75H288.93l-9.52,77.2h27.26C309.43,237.27,311,231.69,301,227Z"/><path class="cls-5" d="M387.66,200.56l4.2-34.31H308.51c-7,6.82,1.56,21.6-2.51,29.75-3,8,0,14-2,21-1,3-7,8-3,10,10,4.69,8.43,10.27,5.67,16.45H348L347,252H303.22c-.08.32-.16.64-.22,1,0,5,7,6,1,10,9.16,7.75,17.83,16,27.4,23.34h45.71l9.52-77.2H318l1-8.58Z"/><path class="cls-4" d="M303,253c.06-.33.14-.65.22-1H278.38l-4.2,34.31H331.4C321.83,279,313.16,270.75,304,263,310,259,303,258,303,253Z"/><ellipse class="cls-6" cx="224.7" cy="469.64" rx="56.25" ry="6.25"/><g id="ipCq1h.tif"><path class="cls-5" d="M250.61,146.82l.17.33s0,.07,0,.1a.15.15,0,0,0-.09.13c0,.09,0,.11.1.13l.41.08.16,0a.44.44,0,0,1,.27.14l.17.17a.37.37,0,0,1,.1.23.6.6,0,0,0,.08.21,1.63,1.63,0,0,0,.11.17.47.47,0,0,1,.05.26.24.24,0,0,1-.15.19l-.28.11a.08.08,0,0,0-.06.08,2.24,2.24,0,0,0,0,.58c0,.07,0,.14.06.22a.21.21,0,0,1,0,.19.45.45,0,0,0,0,.42,2.26,2.26,0,0,0,.11.22,2.14,2.14,0,0,1,.16.65.93.93,0,0,1,0,.23s0,.07,0,.1h0c.11-.06.2,0,.3,0a3.48,3.48,0,0,1,.54.38l.07.06a.41.41,0,0,0,.47,0,.42.42,0,0,1,.43.07,2.25,2.25,0,0,1,.24.36c.06.1,0,.16-.08.2a.23.23,0,0,1-.25-.06c-.06-.07-.13-.13-.2-.2s-.14,0-.21,0,0,0,0,0,0,.12.08.17a.57.57,0,0,1,.08.23.54.54,0,0,0,0,.1,1.05,1.05,0,0,1,0,.19,2.51,2.51,0,0,1,0,.82,2,2,0,0,1-.18.54,3.65,3.65,0,0,1-.14.35.25.25,0,0,0,0,.25.22.22,0,0,1,0,.22c-.1.21-.2.42-.31.62a.41.41,0,0,0-.07.35.91.91,0,0,1,0,.23.17.17,0,0,1,0,.1,1.09,1.09,0,0,0-.23.54c0,.19-.07.38-.12.57a1.22,1.22,0,0,1-.19.49.08.08,0,0,0,0,.08.64.64,0,0,1-.06.47.16.16,0,0,1-.1.08l-.25.08a.11.11,0,0,1-.12,0,.12.12,0,0,1,0-.14,2.31,2.31,0,0,0,.21-.78,6.43,6.43,0,0,1,.27-1.23,2.66,2.66,0,0,0,.1-.49c0-.27.06-.53.08-.8a.91.91,0,0,0,0-.17h0l-.08.11-.23.3-.1.08a.18.18,0,0,1-.22,0c-.08,0-.09,0-.06-.13s.08-.22.1-.33a1.06,1.06,0,0,0,0-.25.32.32,0,0,0,0-.09h0s0,0-.06.08a1.56,1.56,0,0,0-.25.75,5.9,5.9,0,0,0,0,.94l0,.1a.21.21,0,0,1,0,.23c-.1.15-.18.3-.28.46l0,0a.31.31,0,0,1,.08.38.16.16,0,0,1-.07.07l-.16.09a.39.39,0,0,0-.12.14,2.34,2.34,0,0,0-.21.63,1.15,1.15,0,0,1-.06.17l0,.21s0,0,0,0,0,.16-.13.2-.26.08-.39.12-.13,0-.11-.11a.79.79,0,0,1,.06-.22,5.6,5.6,0,0,0,.26-.68c0-.14.12-.27.18-.41s0-.05,0-.07a.32.32,0,0,0,0-.35,1.1,1.1,0,0,1-.18-.66,1.7,1.7,0,0,1,.09-.67,4.28,4.28,0,0,0,.17-.88l0-.21a.07.07,0,0,0-.05-.1l-.39-.12a.08.08,0,0,0-.08,0l-.39.35a1,1,0,0,1-.17.1,1.31,1.31,0,0,0-.35.27.38.38,0,0,0-.11.3,1.59,1.59,0,0,1-.07.48,1.14,1.14,0,0,0,0,.37c0,.32,0,.63,0,.95,0,.05,0,.06.06.08l.35.14a.07.07,0,0,1,0,.05c0,.15,0,.3,0,.45s0,.09-.06.1a.16.16,0,0,1-.17,0l-.33-.36a.48.48,0,0,1-.17-.29.66.66,0,0,0,0-.15,1.32,1.32,0,0,1-.15-.58,2.92,2.92,0,0,1,0-.66l.09-.48c0-.1,0-.2,0-.3a2,2,0,0,1,.35-.85l.24-.35a.32.32,0,0,0,.05-.3,4.31,4.31,0,0,1-.2-1.06,2.12,2.12,0,0,1,0-.44,1.36,1.36,0,0,0,0-.6c-.07-.54-.14-1.08-.22-1.61a3.06,3.06,0,0,0-.05-.32c0-.1-.06-.12-.16-.12a.36.36,0,0,1-.35-.24.14.14,0,0,1,0-.11.44.44,0,0,1,.15-.25,1,1,0,0,0,.15-.2,1.18,1.18,0,0,0,.2-.49.88.88,0,0,1,0-.16.72.72,0,0,1,.09-.2.18.18,0,0,1,.15-.08.23.23,0,0,0,.24-.17s0,0,0-.07a.51.51,0,0,1-.26-.24.24.24,0,0,1,0-.08.3.3,0,0,0-.12-.21s0-.05,0-.09a1.5,1.5,0,0,1,.46-.37.27.27,0,0,0,.12-.09.14.14,0,0,0,.05-.08l.06-.16a2.18,2.18,0,0,0,.09-.23.67.67,0,0,1,.31-.41.31.31,0,0,1,.32,0,.27.27,0,0,0,.3,0l.59-.4c.3-.19.61-.38.9-.59s.73-.58,1.09-.87c.11-.09.1-.06,0-.18a1.74,1.74,0,0,0-.11-.18c0-.06,0-.09,0-.14a.13.13,0,0,1,.17,0,1.1,1.1,0,0,1,.16.15,2.32,2.32,0,0,1,.35.66s0,.09,0,.1a.34.34,0,0,1-.15.06s0,0,0-.06l-.15-.22s0,0-.06-.05,0,0,0,0a1.16,1.16,0,0,1-.28.26c-.28.23-.56.46-.85.67s-.53.37-.8.54l-.57.37-.2.11Zm-.85.66s0,0,0,0-.16.16-.25.23a.14.14,0,0,0-.05.13l0,.25a.46.46,0,0,0,.11.22l.15.15c.07.06.11,0,.14-.05a.67.67,0,0,1,.07-.18,1.63,1.63,0,0,1,.17-.2l0-.07h-.07a.14.14,0,0,1-.15-.09l-.09-.15a.24.24,0,0,1-.06-.23Zm-.64,3.4c.09.48.09,1,.19,1.44l0,0a.64.64,0,0,0,0-.07,3.28,3.28,0,0,0,0-.94A.71.71,0,0,0,249.12,150.88Zm.26,0q0-.19,0-.36s0,0-.06,0l-.13,0s0,0,0,0A.87.87,0,0,0,249.38,150.87Z"/></g><path class="cls-7" d="M211.35,273.77l-1.2.15Z"/><path class="cls-7" d="M212.38,273.65l-.46.05Z"/><path class="cls-7" d="M213.12,273.56l-.41.05Z"/><path class="cls-7" d="M227.83,448h.58c-.09-.71-.18-1.42-.26-2.14A13.13,13.13,0,0,1,227.83,448Z"/><path class="cls-7" d="M209.13,274l-1.38.17Z"/><path class="cls-7" d="M213.12,273.56l-.41.05Z"/><path class="cls-7" d="M213.19,273.55h0Z"/><path class="cls-8" d="M222.45,331.49c.49,7.22,1.1,16.32.83,18.23a52.57,52.57,0,0,0-.29,7.49,7.41,7.41,0,0,1,.3-1.89A31.56,31.56,0,0,0,222.45,331.49Z"/><path class="cls-8" d="M223.3,360.07a7.4,7.4,0,0,1-.25-1.18A60.41,60.41,0,0,0,224.62,370l3,8.62-1.24,22.85s.6,7.67,1.13,16.84c.06-2.31.13-4.63.19-6.93C228.13,394.55,231.11,376.43,223.3,360.07Z"/><path class="cls-7" d="M204.67,274.58l-1.38.17Z"/><path class="cls-9" d="M245.06,441.07c-2.08,3.55-5.58,5.69-9.61,7.06,6.42.19,14.89.68,17,2,0,0-1.78-22.42-.08-32.34,0,0,1.89-5.13,2.76-15-1.74,4.07-4.52,7.42-4.92,11.56C248.9,423.38,249.35,433.3,245.06,441.07Z"/><path class="cls-7" d="M255.27,384.13v-3.67c-2.52-4.73-4.56-9.56-4.79-14.86-.47-14.65-.5-29.31,5.07-43.55,3.86-8.64-.91-19-1.37-28.89,0-1.72-1.73-3.87-3-6a8.25,8.25,0,0,0,3-13.37c2.16-.44,1.72-2.16,1.72-3.89-19,6.09-38.37,3.12-58.19,7.05-3.79.43-7.18-2.44-10.16-5.38l-10.15-.8c-1.27,12.42-4.23,24.43-6.34,36.85-1.7,11.65,1.35,22.85.51,34.5,0,.86-.42,2.58-.42,3.88.37,10.66.19,21,.56,31.6l1.49,3.72c3.4,8.53,7.9,20.1,10.79,27.54a24.87,24.87,0,0,1,5-11.17c4.36-6.06,10.3-11.08,12.48-17.7,0-1,0-2,0-3v.43c0-1.73-1.3-3.88-1.74-4.74-1.75-11.4-1.57-24.45,3.88-34.75,1.43-4.24,5.74-16.14,10.64-21.77l2.13-11.21s5.64,14.64,5.65,17.66c0,1.11.25,4.7.53,8.93a31.56,31.56,0,0,1,.84,23.83,7.41,7.41,0,0,0-.3,1.89c0,.53,0,1.1.06,1.68a7.4,7.4,0,0,0,.25,1.18c7.81,16.36,4.83,34.48,4.44,51.29-.06,2.3-.13,4.62-.19,6.93.58,10.14,1.08,22.1.6,27.58.08.72.17,1.43.26,2.14,1.13,0,3.83,0,7,.12,4-1.37,7.53-3.51,9.61-7.06,4.29-7.77,3.84-17.69,5.11-26.74.4-4.14,3.18-7.49,4.92-11.56A124.51,124.51,0,0,0,255.27,384.13Z"/><path class="cls-9" d="M183.94,408.83l2.85,7.38,3.46,3.87s21.6,15.9,19-6.52c0,0-.35-1.82-1-4.45C207.09,404,205,395.73,202.69,392c0,0,.05-.18.13-.53A41.39,41.39,0,0,1,201.38,380c-2.18,6.62-8.12,11.64-12.48,17.7A24.87,24.87,0,0,0,183.94,408.83Z"/><path class="cls-9" d="M261.11,303.49l-.54-43.11s-19.35,9.77-47.38,13.17h-.07l-.41.05-.33,0-.46.05-.57.07-1.2.15-1,.12-1.38.17-2.37.29h0l-.67.08-1.38.17-.19,0h0l-.57.07-.87.11-.47.06-.22,0-.21,0h0l.21,0,.22,0,.47-.06.87-.11.57-.07h0l.19,0,1.38-.17.67-.08h0l2.37-.29,1.38-.17,1-.12,1.2-.15.57-.07.46-.05.33,0,.41-.05h.07l-25.69-2c3,2.94,6.37,5.81,10.16,5.38,19.82-3.93,39.23-1,58.19-7.05,0,1.73.44,3.45-1.72,3.89a8.25,8.25,0,0,1-3,13.37c1.3,2.16,3,4.31,3,6,.46,9.92,5.23,20.25,1.37,28.89C250,336.29,250,351,250.48,365.6c.23,5.3,2.27,10.13,4.79,14.86,0-8.68.09-30.08.77-33.84C256.89,341.88,262.44,319,261.11,303.49Z"/><path class="cls-10" d="M201.36,377.37v-.43c0,4.76,0,9.89,1.46,14.55.44-2.07,1.62-10.14-3.21-22.31,0,0,1.23-25.44,3.38-29.76,0,0,.18-.57.51-1.54-5.45,10.3-5.63,23.35-3.88,34.75C200.06,373.49,201.35,375.64,201.36,377.37Z"/><path class="cls-7" d="M203.1,274.77h0Z"/><path class="cls-7" d="M204.67,274.58l-1.38.17Z"/><path class="cls-7" d="M202.52,274.84l-.87.11Z"/><path class="cls-7" d="M200.75,275.06Z"/><path class="cls-7" d="M201.18,275l-.22,0Z"/><path class="cls-8" d="M171.61,377.44l0,.13c-.37-10.55-.19-20.94-.56-31.6,0-1.3.42-3,.42-3.88.84-11.65-2.21-22.85-.51-34.5,2.11-12.42,5.07-24.43,6.34-36.85l-3-.23s-.42,3-.42,3.88.46,9.91.46,9.91-5.14,15.54-5.14,16.4-2.47,44.85.56,51.31A43.91,43.91,0,0,0,171.61,377.44Z"/><path class="cls-7" d="M209.13,274l-1.38.17Z"/><path class="cls-7" d="M205.38,274.5h0Z"/><path class="cls-7" d="M202.52,274.84l-.87.11Z"/><path class="cls-11" d="M259.34,286.25s-5.18-2.14-4.74.44,6.77,13.22,2.12,16.53-25.36,1.64-25.35,5.09-9,28.48,1.81,34.92c0,0,16.84,9.87,20.27,3.83S259,323.33,259,323.33,262.42,312.11,259.34,286.25Z"/><path class="cls-11" d="M237.16,383.75s-11.64,0-6.87,10.36,5.24,27.58,2.67,36.21c0,0-.84,8.63,5.62,6.45S245,419.08,245,419.08s6.38-33.64,2.93-34.93S237.16,383.75,237.16,383.75Z"/><path class="cls-10" d="M210.16,274.73c-.43,1.73.9,15.52.91,19.4l.44,3h1.29s-2.63-19.39-1.78-22.41Z"/><path class="cls-12" d="M182.17,288.6c-4.3,4.32-6,5.62-6.87,12.95s-2.06,38.38-2.05,43.12,18.13,9,19.84,3.4,5.57-14.67,3.84-19.84,4.23-32.35-.53-37.51S182.17,288.6,182.17,288.6Z"/><path class="cls-10" d="M213.24,301.45s-20.67,9.11-29.29,9.13c0,0-3,2.6-.43,2.16s20.26-3.07,20.26-3.07l-2.15,2.16s-13.36,3.48-13.36,4.35,1.3,2.15,3.89,1.71,12.93-1.76,12.93-1.76l-2.15,1.73-11.2,4.34.86.86,11.63-3,.44,2.15-7.32,3v.86l6.47-.88.12,11.62s5-15.51,10.2-20.7l2.13-11.21s5.88,14.88,5.77,18.21c0,0-.57-5.72,1.16-5.3a23,23,0,0,0,5.61,0s-6.48-1.28-7.34-3.43l-2.18-8.19s1.29-3.45,5.6-2.17,21.56.81,21.56.81,9.05-.45,11.2-2.61c0,0-2.15,1.73-7.32.45,0,0-13.37,1.75-23.72-.38l-6.9,0s12.92-6.93,18.09-7.8,14.23,0,14.23,0l-2.16-.86s-9.49-1.7-15.09,0-17.66,7.8-17.66,7.8Z"/><path class="cls-12" d="M214,275.58s-2.59,0-2.14,3.89,1.76,15.95,1.76,15.95,3,2.15,3.88,0,.84-7.77.84-7.77,1.27-12.07-1.32-12.06Z"/><path class="cls-4" d="M245.46,442.4c1,1,3,2.49,3,5,0,.5,1.49,1,2,1.49v2c.79-1.19,1,.15,1.5.49v-2.48l-1.5-1s1-4.49,0-5.48-3.5-4.48-8.49-5.47-8,3-10,4.52l0,0a12.19,12.19,0,0,0,1,2C236.48,440.43,242.46,438.42,245.46,442.4Z"/><path class="cls-5" d="M226.59,473.36c8-.52,17.46,1.95,21.93-4,1.38-1.85-.23-5.82,2.66-8.78a3.16,3.16,0,0,0-.19-.7c-.5-1,1-2.5,1-2.5v-6c-.54-.34-.71-1.68-1.5-.49v-2c-.5-.5-2-1-2-1.49,0-2.49-2-4-3-5-3-4-9-2-12.46,1a12.19,12.19,0,0,1-1-2c-2,1.52-1.46,5.46-1.46,5.46-2-1.49-2.49.51-2.49.51l0,5s-.48,8.47-.47,12-3,6.49-3,6.49v4.49c.11.17.23.32.35.48C225.32,474.41,225.83,473.36,226.59,473.36Z"/><path class="cls-4" d="M254,467.81c-2.14-.85-2.45-5.37-2.82-7.27-2.89,3-1.28,6.93-2.66,8.78-4.47,6-14,3.52-21.93,4-.76,0-1.27,1.05-1.64,2.48,3.1,3.93,8.91,3,16.12,3.47,7.48.48,12.45-3,13-4S254,467.81,254,467.81Z"/><ellipse class="cls-13" cx="231.76" cy="450.41" rx="0.91" ry="1" transform="translate(-1.11 0.57) rotate(-0.14)"/><ellipse class="cls-13" cx="231.54" cy="453.9" rx="1.14" ry="1" transform="translate(-1.12 0.57) rotate(-0.14)"/><ellipse class="cls-13" cx="247.2" cy="450.87" rx="0.91" ry="1" transform="translate(-1.11 0.61) rotate(-0.14)"/><ellipse class="cls-13" cx="246.98" cy="454.36" rx="1.14" ry="1" transform="translate(-1.12 0.61) rotate(-0.14)"/><path class="cls-13" d="M233.52,450.41s6.47-1,11,.47v-1S234,448.41,233.52,450.41Z"/><path class="cls-13" d="M233.53,454.89s5.89-1,10,.48v-1S234,452.9,233.53,454.89Z"/><path class="cls-13" d="M234.27,459.64s4.87-1,8.25.47v-1S234.64,457.64,234.27,459.64Z"/><path class="cls-13" d="M235.14,463.51s3.86-1,6.53.49v-1S235.44,461.52,235.14,463.51Z"/><path class="cls-5" d="M189.82,419.22s2.61,9.48,2.19,12.5-.8,25.44.07,28,6.06,11.63,12.52,9,9.47-6.49,9.89-13.39-2.63-14.22-1.77-17.67,3.41-16.39,3.41-16.39,1.7-9.92-5.64-12.49l-2.17-5.17-1.27,9.06s1.29.43,1.3,3a24.08,24.08,0,0,1-1.28,6.47,13.48,13.48,0,0,1-.85,2.59s-.44-4.74-3.89-3.87-3.88,1.3-6.9.45a17.69,17.69,0,0,1-5.61-3A.61.61,0,0,0,189.82,419.22Z"/><path class="cls-4" d="M196.22,465.85s8,5.07,14.83-5.73a1,1,0,0,1,.43,1.3c-.43.86-6.45,6.05-6.45,6.05s.65,1.16,2.05.14c0,0-4.36,2.5-8.16.76S196.22,465.85,196.22,465.85Z"/><path class="cls-4" d="M198.08,445.07s-3.88,0-3.46-3.44h1.72A3.41,3.41,0,0,0,198.08,445.07Z"/><path class="cls-4" d="M204.11,444.62s2.15-.87,2.15-2.59a1.5,1.5,0,0,1,.43.86C206.69,443.32,207.13,444.61,204.11,444.62Z"/><path class="cls-4" d="M213.53,417s.87,4.31-.41,7.33a10.71,10.71,0,0,0,1.71-4.74C214.82,417.43,213.53,417,213.53,417Z"/><path class="cls-4" d="M192.92,450.68s-.84,9.06,6.06,11.63c0,0-2.59-2.15-2.59-3,0,0-2.6-2.15-2.61-6.89S192.92,450.68,192.92,450.68Z"/><path class="cls-4" d="M193.75,438.61s2.6,3.87,10.35,2.13c0,0,.86-.86.43-1.3s-2.58,1.74-6.47.45-3.88-2.14-3.88-2.14S193.32,437.75,193.75,438.61Z"/><path class="cls-4" d="M194.6,435.59s1.74,3.88,9.06,1.27l-.43-.86s-3.88,1.3-6.9,0S194.6,435.59,194.6,435.59Z"/><path class="cls-4" d="M191.31,424.54s-1.06-4.89.24-3.17S192.85,424,195,424l7.76,0,1.72.42s.86-1.29-.43-1.29l-8.63,0s-2.15,0-2.58-.85a8.27,8.27,0,0,0-1.3-1.72S189.76,419.09,191.31,424.54Z"/><g id="B4zZdB.tif"><path d="M237.64,442.17l-.09.22a1.67,1.67,0,0,0-.12.49.79.79,0,0,0,.18.61.74.74,0,0,0,.39.25,1,1,0,0,0,.34,0,1.34,1.34,0,0,0,.35,0l.89-.24.73-.2.95-.26,1.18-.32.86-.24.92-.25.57-.15L245,442h.05a.1.1,0,0,1,0,.05l-.3.13-.76.33-1,.43-1,.43-.94.42-.65.28-.88.38-.66.28a4.11,4.11,0,0,1-.79.28c-.11,0-.24,0-.36.06a1.18,1.18,0,0,1-.49-.06,1.06,1.06,0,0,1-.43-.26.67.67,0,0,1-.21-.48,1.17,1.17,0,0,1,.06-.45,2.82,2.82,0,0,1,.33-.73c.12-.19.24-.37.38-.55l.3-.38Z"/></g><g id="B4zZdB.tif-2" data-name="B4zZdB.tif"><path d="M195.88,424.74c0,.11,0,.23-.07.34a5.78,5.78,0,0,0-.08.74,2.31,2.31,0,0,0,.13.93.73.73,0,0,0,.27.37.44.44,0,0,0,.24.07.46.46,0,0,0,.24-.08l.62-.36.51-.3.66-.39.82-.49.59-.35.65-.39.39-.23.15-.09h0s0,.06,0,.07l-.22.2-.53.5-.68.65-.69.65-.65.63-.46.42-.6.57-.46.43a3,3,0,0,1-.55.43,1.21,1.21,0,0,1-.25.08.39.39,0,0,1-.34-.08,1,1,0,0,1-.31-.4,1.92,1.92,0,0,1-.15-.72,5.09,5.09,0,0,1,.05-.69,7.51,7.51,0,0,1,.23-1.11c.08-.29.16-.57.26-.83s.14-.38.2-.57Z"/></g><path class="cls-14" d="M235.21,117.73c-5.6,3-8.6,10.37-15.07,10-3.45-.42-4.75-4.73-4.76-8.18,0-3-4.88-5-9-5.19l-.94,5.22,2.18,6.46,12.53,10.32,15.12-5.48A49.91,49.91,0,0,0,235.21,117.73Z"/><path class="cls-15" d="M238.3,108.65l-3.13-5.15-28,6.54-.77,4.27c4.1.19,9,2.2,9,5.19,0,3.45,1.31,7.76,4.76,8.18,6.47.42,9.47-6.92,15.07-10a49.91,49.91,0,0,1,.08,13.1l1.68-.6Z"/><path class="cls-5" d="M202.41,105.74s-10.78-3.43-12.91,6.93c0,0,11.23,10.75,10.81,15.06,0,0-3.44,1.3-2.55,12.51s-4.1,87.1-4.1,87.1l-11.55,37.54-6.91-4.29-1.7,11.21s6.48,4.3,28,2.52c0,0,45.26-3.13,57.74-13.94l-30.61,1.8L232,223.8l5.49-48.3,7.69-26.75,2.56-11.22,20.67-10s.85-7.33-2.61-9.91c0,0-22.45-14.17-27.2-14.59,0,0-2.58,0-2.15,2.16s1.33,15.09.05,19c0,0,0,5.18-.42,5.61s-15.51,5.64-15.51,5.64l-10.37-10.32s-3.47-8.18-3.9-9.91C206.32,115.21,204.16,113.49,202.41,105.74Z"/><path class="cls-13" d="M194.23,111.36l6-3.89s.86-.87-2.15,0S192.07,109.64,194.23,111.36Z"/><path class="cls-13" d="M237.77,104.79a21,21,0,0,0,2.16,3c.86.86,9.92,2.13,18.14,13.75l5.18,2.15s2.58-1.74,2.15-2.6-11.66-7.3-11.66-7.3l-11.66-7.73S237.76,103.49,237.77,104.79Z"/><path class="cls-13" d="M259,131.47s-22.4,10-40.51,6.56c0,0,1.73,2.59,21.12,1.25l4.31-.88a24.7,24.7,0,0,1,.46,9.92L246.9,138Z"/><path class="cls-13" d="M201.17,128.16s-4.76.19-3.65,10.66,1.95,104.07-14.68,124.36c0,0-2.45,3.43.14,4.29,0,0,6.88-8.64,10.3-17.27s7.64-51.76,7.64-51.76l.31-49.15s-2.19-12.93-1.33-13.8a6.4,6.4,0,0,1,2.15-1.3,19,19,0,0,0-.87-2.15c-.43-.86,0-1.72,1.3-.86C202.48,131.18,204.63,129,201.17,128.16Z"/><path class="cls-13" d="M240.78,138.81l1.82,3s-10.69,34.52-11.11,42.29-6.74,61.24-6.74,61.24l-9.46,9.94,9-6.49v3l-5.16,6,5.6-3.46-1.7,11.21,1.73.86,14.41-101.79,7.15-23.07-.75-3.67Z"/><path class="cls-13" d="M229.35,190.18a59.64,59.64,0,0,0-11.64.46,47.07,47.07,0,0,1-11.64,0,3,3,0,0,0,2.16,1.28c1.29,0,6.9,1.28,10.35.41s11.21-.46,11.21-.46S230.65,190.17,229.35,190.18Z"/><path class="cls-13" d="M199.61,192s11.21,3,11.22,3.86l-3.88.44a12.85,12.85,0,0,1-7.34-1.71Z"/><path class="cls-13" d="M198.36,210.09s8.21,6.87,13.38,6c0,0,1.29.43,0,.43s-6,.45-8.19-.84a54,54,0,0,1-5.62-4.3Z"/><path class="cls-13" d="M200.73,122.13s9.51,11.61,10.38,12l1.29-.86L200.29,120.4Z"/><path class="cls-16" d="M182.53,260.57s26.31,4.68,52.6-.56,27.58-6.54,27.58-6.54l.44,5.18S236,276,185.58,273.5l-12.08-1.7,2.56-12.08Z"/><path class="cls-17" d="M166.44,224.74a133.08,133.08,0,0,1,5.95-16A58.55,58.55,0,0,0,166.44,224.74Z"/><path class="cls-17" d="M201.61,128.16s-3.06-13.36-9.09-13.78l-25.83,18.18s-3.85,10.79-5.57,12.51-.84,8.2-.84,8.2L146.11,177s-3.45,2.16-.84,9.91,6.08,18.53,7.38,20.68,6,6,6.06,8.18,6.92,11.62,6.92,11.62.3-1,.81-2.67a58.55,58.55,0,0,1,5.95-16c.92-1.9,2.24-3.3,2.67-4.24l.35-.47c-.19-.3-.72-1.15-1.34-2.32a10.55,10.55,0,0,1-6.36-6.17c-2.61-7.75,3.42-13.37,6-20.28,2.57-6,0-13.36,1.24-20.26,4.83,11,4.47,23,2.2,34.87a44.15,44.15,0,0,1-.79,13s-.35.4-.94,1.18l.08.12a3.15,3.15,0,0,0-.43.35,42,42,0,0,0-2.67,4.24,133.08,133.08,0,0,0-5.95,16c-.3,1.41-.58,1.14-.81,2.67,0,0,6.92,5.59,6.92,7.32s-4.72,10.36-4.71,13.37a53,53,0,0,0,1.32,8.62l13,10.32s12.47-13.4,16.64-68.16c0,0,2.45-56.49.28-61.66A7.28,7.28,0,0,1,201.61,128.16Z"/><path class="cls-18" d="M172,189.89l4.29-6.48a53.12,53.12,0,0,1,.84,6.42c2.27-11.85,2.63-23.91-2.2-34.87-1.28,6.9,1.33,14.22-1.24,20.26-2.57,6.91-8.6,12.53-6,20.28a10.55,10.55,0,0,0,6.36,6.17C172.46,198.62,170.27,193.38,172,189.89Z"/><path class="cls-17" d="M175.41,204l-.35.47a3.15,3.15,0,0,1,.43-.35Z"/><path class="cls-19" d="M292.67,164.15,280.09,134l-11.66-7.3s-19.81,9.1-24.55,9.12l.43,1.72-9,33.22s-8.51,46.15-8.45,71.16l-3.81,25.45s12.51,5.14,28-1.36c0,0,12.06-4.78,12-8.23L261.38,238s30.14-15.17,40.87-33.3C302.25,204.66,307,196.45,292.67,164.15ZM260,213.38c-1.31-8.19,7.26-29.33,7.26-29.33,4.32,3.87,8.66,17.22,8.66,17.22C271.21,206.46,260,213.38,260,213.38Z"/><path class="cls-20" d="M189.94,117.84l-11.62,10,6.49,7.74-9.92.89-7.31,4.76s-.86,2.16-.43,3-3-1.29-3-1.29-1.71,3.89,3.9,7.32c0,0,2.16,2.58.87,2.59s-6.48-3.87-6.48-3.87-1.29.87,0,2.16,6.91,5.15,6.91,5.15.87,1.73-.43,1.3-6.91-5.16-7.34-4.3,3.46,5.17,3.46,5.17-2.58.44-3.45-.85c0,0-2.57,5.18,9.52,11.61,0,0,0,2.16-1.73,1.3s-9.93-7.3-10.37-9.89c0,0-1.71,3.89,6.93,11.19a2.43,2.43,0,0,1-2.59,0c-1.29-.86-7.35-7.31-6.92-9l-.85,3s.43,3.45,2.59,5.17c0,0,0,3-1.29,1.3s-3.46-4.31-3.46-4.31l-2.57,3.89-2,.55,11.46-19.11s-.58-6,1.21-8.63,5.2-12.08,5.2-12.08l25.18-17.65Z"/><path class="cls-20" d="M147.1,186.26a.43.43,0,0,1,0-.4,5.24,5.24,0,0,1,6.36-2.83c3.51.95,8.94,11.34,12.75,17.72a6.26,6.26,0,0,1-1.7,8.27h0a3.15,3.15,0,0,1-4.55-.94C156.75,202.73,150.08,191.5,147.1,186.26Z"/><path class="cls-20" d="M185.52,248.92s-3.9-9.47-1.31-7.76a17,17,0,0,1,3.89,3.44Z"/><path class="cls-20" d="M187.65,238.57s-6.49-7.31-3-9.48c0,0,5.61,3,5.62,5.59a13.52,13.52,0,0,1-1.28,5.18Z"/><path class="cls-20" d="M185,223.92l7.34,6s1.72-4.31.42-5.6-5.2-9-5.2-9Z"/><path class="cls-21" d="M258.27,202.18s12.8-55.22,12.82-47.89-2.56,12.08,0,17.68,9.53,16.79,10.39,18.94,6.91,4.29,4.33,5.16-23.67,18.6-23.67,18.6l14.53-14.52-9.87-17.83s-7,19.71-6.91,29.91Z"/><path class="cls-21" d="M268.87,128.86,246,137.53s-14.95,57.82-16.17,87.14-2.94,32.77-2.94,32.77l-2.68,9.26s5.2-36.43,4.33-41.17,5.9-55.63,11-65.56l5.54-23.3L268.3,127Z"/><path class="cls-21" d="M260.52,238.82,252.76,241s4.8,24.13-15,26.76a34.4,34.4,0,0,0,25.41-10L261.38,238Z"/><path class="cls-21" d="M254,216.85s-3.42,11.22,0,19l2.16,1.29s-3.9-9.48-.9-14.23l2.14-7.77Z"/><path class="cls-21" d="M166.06,227.41s1.7-12.07,9.44-20.72c0,0-6,12.52-6,17.7,0,0-1.72,3.88,2.6,6l.87,3.87Z"/><path class="cls-21" d="M242.73,193.59s-.79,29.75,4.84,42.68c0,0,.85-5.61.42-7.77S244.5,215.15,242.73,193.59Z"/><path class="cls-22" d="M200.19,79s1.34,16.81.91,17.68a7.14,7.14,0,0,1,1.3,2.58c0,.86-.42,6.47,0,8.19s4.26,9.21,4.26,9.21,3.6,9.48,4.43,9.83,8.18,2.48,12,.31a36.62,36.62,0,0,0,7.74-6.48s4.73-6.91,5.15-12.52l.42-3.88s11.19-9.08,4.27-15.1c0,0-6.39,2.06-6.63,6.43L233,85.4l-3.89-6.89Z"/><path class="cls-17" d="M201.63,97.71a6,6,0,0,0,3.35,2c2.16.43,6,.85,6,.85v-.86l-9.62-3Z"/><path class="cls-17" d="M216.63,101.39a49.23,49.23,0,0,1,11.64-1.75l-.44-.86-3-.43-7.32,1.74Z"/><path class="cls-17" d="M235.19,108.67l-.44-3.87-.87-.87c-.82,15.53-9.44,16.84-9.44,16.84l-.44-3V116l-1.3-.43h-3.45l-2.16-.85H208.9l-1.72.43-4.41-6.56,4.28,9.35,4,8.41,2.5.76,7.27.4,5.51-2.69s2.81-2.83,4.41-4.19,4.49-9.11,4.49-9.11Zm-12,12.54L221,123.37a9.75,9.75,0,0,1-4.31,1.3c-2.16,0-3,.44-4.32-1.28s-3-3.87-3-3.87l-.87-1.29v-.87l3-.87,4.31-.44,5.18,1.28,1.73.86S223.58,120.78,223.15,121.21Z"/><path class="cls-23" d="M209.34,118.22s3,1.72,4.32,1.72,3.88.42,5.17,0,3.45-1.3,3.45-1.3l-5.18,0h-3.45l-3-.85h-1.29Z"/><path class="cls-24" d="M209.34,117.36a5.6,5.6,0,0,1,3.45-.44,18.62,18.62,0,0,0,3.88.42h3.13l1.9.5.58.78-9.1,0-3.41-.79Z"/><path class="cls-25" d="M236.88,96.6s.43-2.59,1.29-3,1.71-3.89,3-2.6a2.72,2.72,0,0,1,.44,3s.43,0-.43-.86l-.87-.86-1.29.86.43.86s1.73.86,1.73,1.29-.43,1.73-.86,1.3a6.19,6.19,0,0,1-.86-1.29s-1.3-.43-1.3,0a4.42,4.42,0,0,1-.43,1.3Z"/><path class="cls-26" d="M201.5,85l0,8.2s.41-7.77,2.57-7.77a37.39,37.39,0,0,1,6,.85s-4.33-5.17-6.91-4.73S201.5,85,201.5,85Z"/><path class="cls-27" d="M211.46,104a26.87,26.87,0,0,1-.42,5.18c-.42,1.29-2.58,2.16,0,3a17.18,17.18,0,0,0,1.29-3.88,32.7,32.7,0,0,0,.41-5.18A1.55,1.55,0,0,0,211.46,104Z"/><path class="cls-14" d="M210.64,108.38s-2.15,1.73-1.28,2.59a1.32,1.32,0,0,0,.86-.44,7.18,7.18,0,0,0,.85-2.15Z"/><path class="cls-14" d="M217.08,109.15a1.55,1.55,0,0,1,1.3.86c.43.86.43,1.72.86,1.29s0-.86,0-1.29,0-.87-1.3-.86Z"/><path class="cls-28" d="M214.94,113.9s2.58,0,3-1.3c.3-.92.86,0,.86,0s-1.29,1.72-2.58,1.73S214.94,113.9,214.94,113.9Z"/><path class="cls-26" d="M215.79,112.17s2.59.43,2.16-.87-1.3-.42-1.3-.42l-.87-2.59s-.86,0-.86.43A10.14,10.14,0,0,0,215.79,112.17Z"/><path class="cls-18" d="M213.08,58.72s-9.91,5.62-12.49,7.79S195,70,195.88,77.73c0,0,0,1.29,3,1.72,0,0,.45,7.32,1.32,10.34,0,0,.83-10.35,1.7-9.92s3,.85,4.74,1.71,5.18,1.71,7.77.85,8.62-2.18,9.48-1.32,6.47,1.71,6.47,3-1.27,6.47-.41,7.76c0,0,1.72-1.3,3,0s.88,6.47.88,6.47L236,93.15s2.58-3.89,3.44-3.89a1.88,1.88,0,0,0,1.29-.43s.85-6.9.42-7.76-.88-6.47-.88-6.47l.86-.86s.42-4.32-.44-4.31a1.9,1.9,0,0,1-1.3-.43s-.45-6.9-6.05-8.18L232,57.37l-4.31.88-3.45-.86-1.72.44-5.61.44-2.15.44Z"/><polygon class="cls-29" points="84 257 89 257 90.71 243.31 85.71 243.31 84 257"/><polygon class="cls-29" points="91 201 89.36 214.08 94.36 214.08 96 201 91 201"/><polyline class="cls-29" points="87 252 124 252 123 257 85.53 257 87 252"/><polyline class="cls-29" points="93 209 129 209 128 214 91.53 214 93 209"/><polygon class="cls-29" points="314 201 312.37 214.08 317.37 214.08 319 201 314 201"/><polyline class="cls-29" points="316 209 352 209 351 214 314.52 214 316 209"/><polygon class="cls-29" points="278 252 277.52 257 346 257 347 252 278 252"/></g></svg>