<svg xmlns="http://www.w3.org/2000/svg" viewBox="0 0 482 494"><defs><style>.cls-1{fill:#f9dd51;}.cls-2{fill:#03843d;}.cls-3{fill:#009245;}.cls-4{fill:none;stroke:#ddb63a;stroke-miterlimit:10;stroke-width:0.5px;}.cls-5{fill:#f2f2f2;}.cls-6{fill:#fff;}.cls-7{fill:#efeeea;}.cls-8{fill:#71bed3;}.cls-9{fill:#80ccdd;}.cls-10{fill:#5fb1c4;}.cls-11{fill:#60adbf;}.cls-12{fill:#78c4d6;}.cls-13{fill:#76c2d3;}.cls-14{fill:#e6e6e6;}.cls-15{fill:#e29886;}.cls-16{fill:#bf796f;}.cls-17{fill:#f9f9f9;}.cls-18{fill:#333;}.cls-19{fill:#1a1a1a;}.cls-20{fill:#2d2d2d;}.cls-21{fill:#3f3f3f;}.cls-22{fill:#151316;}.cls-23{fill:#eaa18b;}.cls-24{fill:#e09586;}.cls-25{fill:#f9897a;}.cls-26{fill:#ef8075;}.cls-27{fill:#f2b1a2;}.cls-28{fill:#eda594;}.cls-29{fill:#d88977;}.cls-30{fill:#d88e80;}</style></defs><title>myself</title><g id="yellow"><path class="cls-1" d="M70.16,126.69c19.37-42,61-57.58,97.11-71.13C208.79,40,281.71,12.68,345.81,51c3.93,2.35,68.26,41.9,66.56,95.87-1.6,50.9-60.61,73.07-51,107.85,6.95,25.06,39.14,19.21,63,53.47C443.06,335,452.06,379.8,431,414.58c-27.43,45.2-94.7,55.34-129.2,33.93-28.69-17.81-29.28-54.09-50.49-55.37-20.19-1.23-25.58,31.26-51.64,36.79-30.58,6.49-76.62-26.9-82.48-64.08C108,307.78,199.8,259.27,186.64,235.36c-11.5-20.87-81.47,16.12-113.4-16.15C51.34,197.09,58,153.14,70.16,126.69Z"/></g><g id="struiken"><path class="cls-2" d="M167.29,251.45l-2.07,16.12A112.14,112.14,0,0,0,143,278.2l-8-5.49,1.38,9.85a162.68,162.68,0,0,0-14.89,11.78l-6.9-6.95A161.66,161.66,0,0,1,167.29,251.45Z"/><path class="cls-2" d="M117.44,298.05A238.17,238.17,0,0,0,78.49,346.5c2.76-7.8,13.84-36.26,36.06-59.06Z"/><path class="cls-2" d="M199.24,261.65l-21.16,2.54-10.16-13c9.91-4.17,24.13-7,36.77-9.44Z"/><path class="cls-3" d="M78.49,346.5l-.46.8c1.83-20.92,10.45-39.57,22.22-55.74l4.76,1.8-2.92-4.28a172.23,172.23,0,0,1,12.12-14.21l6.21,2.35-3.5-5.15a225,225,0,0,1,20-17.84l8.47,7-3.09-11.13a285.1,285.1,0,0,1,52-31.1c8-3,15,5.9,15,5.9l-4.61,16.87c-12.64,2.44-26.86,5.27-36.77,9.44l-.51-.65-.12.91a161.66,161.66,0,0,0-52.69,35.94l-.09-.08,0,.13C92.33,310.24,81.25,338.7,78.49,346.5Z"/><path class="cls-3" d="M114.51,287.31l.09.08,0,.05Z"/><path class="cls-3" d="M167.92,251.19l-.63.26.12-.91Z"/><path class="cls-2" d="M189.54,287.08l5.82,15.17a111.32,111.32,0,0,0-14.49,19.89l-9.67-1,5.89,8a164.32,164.32,0,0,0-7.52,17.44l-9.37-2.84A161.43,161.43,0,0,1,189.54,287.08Z"/><path class="cls-2" d="M167.76,351.75a237.93,237.93,0,0,0-11.3,61.13c-1.27-8.17-5-38.49,3.72-69.1Z"/><path class="cls-2" d="M222.5,280.9l-17.42,12.27L190,286.55c6.74-8.37,17.92-17.61,27.88-25.75Z"/><path class="cls-3" d="M156.46,412.88c0,.6,0,.93,0,.93-8.31-19.29-9.57-39.8-6.88-59.62l5-.67-4.6-2.38a171.42,171.42,0,0,1,3.93-18.27l6.58-.87L155,329.13A226.32,226.32,0,0,1,164.09,304l10.76,2.13-8-8.33a285.14,285.14,0,0,1,31.05-52.07c5.64-6.4,16-1.93,16-1.93l3.94,17.05c-10,8.14-21.14,17.38-27.88,25.75l-.76-.33.33.86a161.43,161.43,0,0,0-29.34,56.64l-.11,0,.09.09C151.44,374.39,155.19,404.71,156.46,412.88Z"/><path class="cls-3" d="M160.09,343.69l.11,0,0,.06Z"/><path class="cls-3" d="M190,286.55l-.43.53-.33-.86Z"/><path class="cls-2" d="M268,308.9l15.87,3.47a112.43,112.43,0,0,0,8.65,23.05l-6.18,7.5,9.93-.51a164,164,0,0,0,10.44,15.87l-7.53,6.26A161.64,161.64,0,0,1,268,308.9Z"/><path class="cls-2" d="M310.05,362.64a238.19,238.19,0,0,0,44.85,43.05c-7.52-3.43-34.9-17-55.66-41.1Z"/><path class="cls-2" d="M281,278l.68,21.3-13.84,9c-3.29-10.24-4.86-24.66-6.18-37.46Z"/><path class="cls-3" d="M354.9,405.69l.76.53c-20.68-3.66-38.5-13.88-53.58-27l2.21-4.57-4.51,2.52a167.89,167.89,0,0,1-13.1-13.32l2.89-6-5.44,3a221,221,0,0,1-16-21.45l7.68-7.82-11.35,2.1A285.21,285.21,0,0,1,238,279.15c-2.24-8.24,7.2-14.44,7.2-14.44l16.4,6.08c1.32,12.8,2.89,27.22,6.18,37.46l-.7.45.9.2a161.64,161.64,0,0,0,31.18,55.64l-.09.07.14,0C320,388.73,347.38,402.26,354.9,405.69Z"/><path class="cls-3" d="M299.1,364.61l.09-.07.05,0Z"/><path class="cls-3" d="M267.81,308.25c.07.21.13.43.2.65l-.9-.2Z"/><path class="cls-2" d="M305.45,289.86l15.62-4.47a111.86,111.86,0,0,0,18.55,16.18l-1.88,9.54,8.5-5.16A165.26,165.26,0,0,0,363,315l-3.65,9.08A161.66,161.66,0,0,1,305.45,289.86Z"/><path class="cls-2" d="M368,317.23a237.4,237.4,0,0,0,59.9,16.61c-8.24.56-38.77,1.63-68.5-9.76Z"/><path class="cls-2" d="M302.19,256.48l10.69,18.43L305,289.39c-7.75-7.46-16-19.4-23.21-30Z"/><path class="cls-3" d="M427.86,333.84l.93.12c-19.94,6.58-40.48,6-60,1.62l-.23-5.08-2.78,4.37a171.53,171.53,0,0,1-17.85-5.51l-.29-6.64L344.31,328A222.05,222.05,0,0,1,320,316.69l3.06-10.53-9,7.24A285.19,285.19,0,0,1,265,277.9c-5.89-6.19-.52-16.12-.52-16.12l17.33-2.43c7.23,10.64,15.46,22.58,23.21,30l-.4.72.88-.25a161.66,161.66,0,0,0,53.85,34.19l0,.11.1-.08C389.09,335.47,419.62,334.4,427.86,333.84Z"/><path class="cls-3" d="M359.26,324.16l0-.11.06,0Z"/><path class="cls-3" d="M305,289.39l.48.47-.88.25Z"/><path class="cls-2" d="M329.38,255.34,341,244a111.66,111.66,0,0,0,24,5.44l2.88,9.29,5-8.58a162.59,162.59,0,0,0,19,0l1.09,9.73A161.4,161.4,0,0,1,329.38,255.34Z"/><path class="cls-2" d="M397.39,249.78A237.52,237.52,0,0,0,458,236c-7,4.4-33.36,19.83-64.93,23.9Z"/><path class="cls-2" d="M310.67,227.51l18.16,11.15-.1,16.49c-10.36-2.88-23.27-9.49-34.69-15.43Z"/><path class="cls-3" d="M458,236l.87-.34c-14.43,15.26-32.77,24.53-52,29.9l-2.6-4.37-.38,5.17A171.34,171.34,0,0,1,385.53,270l-3.41-5.7-.45,6.21A223.08,223.08,0,0,1,354.94,272l-2.3-10.72L348.15,272a285,285,0,0,1-60.1-7.93c-8.11-2.65-8.1-13.95-8.1-13.95L294,239.72c11.42,5.94,24.33,12.55,34.69,15.43V256l.66-.64A161.4,161.4,0,0,0,393,259.89l0,.12.05-.13C424.64,255.81,451,240.38,458,236Z"/><path class="cls-3" d="M393,260l0-.12h.07Z"/><path class="cls-3" d="M328.73,255.15l.65.19-.66.64Z"/><path class="cls-2" d="M334.07,213.6l4.85-15.5a112.63,112.63,0,0,0,23.72-6.59l6.93,6.81.36-9.94a162.8,162.8,0,0,0,16.73-9l5.57,8A161.22,161.22,0,0,1,334.07,213.6Z"/><path class="cls-2" d="M391.29,176.44a237.72,237.72,0,0,0,46.82-40.9c-4.07,7.19-20,33.28-45.82,51.84Z"/><path class="cls-2" d="M304.39,198l21.28,1.19,7.73,14.58c-10.48,2.37-25,2.68-37.85,2.87Z"/><path class="cls-3" d="M438.11,135.54l.6-.71c-5.46,20.27-17.21,37.13-31.62,51l-4.37-2.6,2.12,4.72a170.85,170.85,0,0,1-14.42,11.88l-5.7-3.4,2.55,5.68a224.8,224.8,0,0,1-22.78,14.07l-7.11-8.35,1.1,11.5a285.56,285.56,0,0,1-56.67,21.53c-8.41,1.51-13.75-8.44-13.75-8.44l7.49-15.8c12.87-.19,27.37-.5,37.85-2.87l.39.73.28-.88a161.22,161.22,0,0,0,58.16-26.18l.07.1v-.14C418.15,168.82,434,142.73,438.11,135.54Z"/><path class="cls-3" d="M392.3,187.52l-.07-.1.06,0Z"/><path class="cls-3" d="M333.4,213.75l.67-.15-.28.88Z"/><path class="cls-2" d="M318.39,174.63l-3.08-15.94a112.43,112.43,0,0,0,17.75-17.06l9.33,2.71L338,135.42a166,166,0,0,0,10.45-15.86l8.72,4.44A161.29,161.29,0,0,1,318.39,174.63Z"/><path class="cls-2" d="M351.14,114.77a238,238,0,0,0,21.8-58.21c-.17,8.26-1.78,38.76-15.74,67.37Z"/><path class="cls-2" d="M284.85,175l19.3-9,13.73,9.16c-8.11,7.07-20.72,14.21-32,20.49Z"/><path class="cls-3" d="M372.94,56.56l.2-.91c4.81,20.44,2.46,40.85-3.65,59.9l-5.08-.22,4.11,3.15a168.75,168.75,0,0,1-7.06,17.29l-6.63-.28,4.94,3.78a223.55,223.55,0,0,1-13.37,23.2l-10.23-4,6.43,9.59a285.45,285.45,0,0,1-39.67,45.84c-6.69,5.32-16.11-.9-16.11-.9l-.9-17.46c11.24-6.28,23.85-13.42,32-20.49l.69.46-.18-.91A161.29,161.29,0,0,0,357.17,124l.11,0-.08-.12C371.16,95.32,372.77,64.82,372.94,56.56Z"/><path class="cls-3" d="M357.28,124.05l-.11,0,0-.07Z"/><path class="cls-3" d="M317.88,175.08l.51-.45.18.91Z"/><path class="cls-2" d="M286.1,147.77l-10.28-12.58a111.75,111.75,0,0,0,7.54-23.43l9.5-2.05-8.1-5.77A163.22,163.22,0,0,0,286.43,85l9.79-.24A161.36,161.36,0,0,1,286.1,147.77Z"/><path class="cls-2" d="M286.53,79.54A238.4,238.4,0,0,0,278.11,18c3.76,7.35,16.82,35,18.11,66.78Z"/><path class="cls-2" d="M256.74,164l12.69-17.11,16.43,1.55c-3.78,10.06-11.5,22.34-18.41,33.19Z"/><path class="cls-3" d="M278.11,18c-.17-.58-.27-.9-.27-.9,13.93,15.72,21.56,34.8,25.21,54.46l-4.57,2.22,5.11.82a169.78,169.78,0,0,1,2,18.58l-6,2.89,6.14,1a222.31,222.31,0,0,1-.77,26.76l-10.88,1.36,10.21,5.4a285.3,285.3,0,0,1-13.18,59.17c-3.35,7.86-14.6,6.85-14.6,6.85l-9.08-15c6.91-10.85,14.63-23.13,18.41-33.19l.83.07-.59-.71a161.36,161.36,0,0,0,10.12-63h.12l-.12-.06C294.93,52.92,281.87,25.3,278.11,18Z"/><path class="cls-3" d="M296.34,84.79h-.12v-.06Z"/><path class="cls-3" d="M285.86,148.41c.08-.22.17-.43.24-.64l.59.71Z"/><path class="cls-2" d="M244.94,139.44l-15-6.19A112,112,0,0,0,225.43,109l7.4-6.31L223,101.5a165.1,165.1,0,0,0-7.5-17.45L224,79.2A161.53,161.53,0,0,1,244.94,139.44Z"/><path class="cls-2" d="M212.94,79.17A238,238,0,0,0,176.3,29c6.81,4.69,31.41,22.8,47.63,50.2Z"/><path class="cls-2" d="M226.77,167.63l3.06-21.09L245,140.11c1.45,10.66.48,25.13-.46,38Z"/><path class="cls-3" d="M176.3,29l-.65-.66c19.72,7.22,35.48,20.4,48,36l-3,4.12,4.89-1.7a170.79,170.79,0,0,1,10.57,15.4l-3.89,5.39,5.88-2a223.07,223.07,0,0,1,12,23.93l-8.93,6.36,11.54-.09A285.19,285.19,0,0,1,269.26,174c.77,8.5-9.61,13-9.61,13l-15.09-8.86c.94-12.83,1.91-27.3.46-38l.77-.32-.85-.35A161.53,161.53,0,0,0,224,79.2l.1-.06h-.13C207.71,51.75,183.11,33.64,176.3,29Z"/><path class="cls-3" d="M224.06,79.14l-.1.06,0,0Z"/><path class="cls-3" d="M245,140.11c0-.22-.05-.45-.08-.67l.85.35Z"/><path class="cls-2" d="M204.74,151.64l-16.15,1.67a112.07,112.07,0,0,0-15.44-19.18l3.52-9.06-9.27,3.6a164.08,164.08,0,0,0-14.88-11.8l5.18-8.31A161.4,161.4,0,0,1,204.74,151.64Z"/><path class="cls-2" d="M148,113.77A237.66,237.66,0,0,0,91.91,86.94c8.21.9,38.46,5.17,65.74,21.59Z"/><path class="cls-2" d="M202.13,185.08l-7.31-20,10.32-12.87c6.33,8.69,12.34,21.89,17.61,33.63Z"/><path class="cls-3" d="M91.91,86.94,91,86.67c20.78-3,40.91,1.12,59.35,8.88l-.67,5,3.5-3.81a168.75,168.75,0,0,1,16.61,8.54l-.87,6.59,4.21-4.59a223.06,223.06,0,0,1,21.93,15.35l-4.85,9.84L200.35,127a285.89,285.89,0,0,1,42.19,43.54c4.71,7.12-2.31,16-2.31,16l-17.48-.64c-5.27-11.74-11.28-24.94-17.61-33.63l.52-.65-.92.1a161.4,161.4,0,0,0-47-43.08l.06-.1-.11.07C130.37,92.11,100.12,87.84,91.91,86.94Z"/><path class="cls-3" d="M157.76,108.46l-.06.1,0,0Z"/><path class="cls-3" d="M205.14,152.19c-.13-.18-.26-.37-.4-.55l.92-.1Z"/><path class="cls-2" d="M175.15,181.45l-13.43,9.13A112.24,112.24,0,0,0,139,181l-1.21-9.64-6.45,7.56a163.09,163.09,0,0,0-18.7-3.32l.62-9.78A161.48,161.48,0,0,1,175.15,181.45Z"/><path class="cls-2" d="M107.22,175a237.9,237.9,0,0,0-62.09,3c7.65-3.1,36.31-13.69,68.11-12.18Z"/><path class="cls-2" d="M188.71,212.12,172.78,198l3-16.23c9.7,4.65,21.25,13.42,31.46,21.26Z"/><path class="cls-3" d="M45.13,178l-.92.19c16.88-12.5,36.55-18.42,56.46-20.34l1.81,4.75,1.27-5a171.5,171.5,0,0,1,18.68-.35l2.36,6.21,1.52-6a221.87,221.87,0,0,1,26.59,3.11l.4,11,6.28-9.69a285.64,285.64,0,0,1,57.78,18.31c7.53,4,5.55,15.15,5.55,15.15L207.22,203c-10.21-7.84-21.76-16.61-31.46-21.26l.15-.81-.76.52a161.48,161.48,0,0,0-61.85-15.61v-.11l-.07.11C81.44,164.33,52.78,174.92,45.13,178Z"/><path class="cls-3" d="M113.31,165.73v.11h-.06Z"/><path class="cls-3" d="M175.76,181.74l-.61-.29.76-.52Z"/><path class="cls-2" d="M163.24,221.72l-7.48,14.42a111.76,111.76,0,0,0-24.51,2.35l-5.64-7.92-2.09,9.72a162.07,162.07,0,0,0-18,5.94l-4.08-8.9A161.61,161.61,0,0,1,163.24,221.72Z"/><path class="cls-2" d="M100.4,248.31A237.56,237.56,0,0,0,47.16,280.4c5.27-6.37,25.47-29.28,54.18-43Z"/><path class="cls-2" d="M189.73,242.29,169,237.4l-5.07-15.7c10.74-.51,25.07,1.72,37.77,3.78Z"/><path class="cls-3" d="M47.16,280.4l-.72.59c8.93-19,23.44-33.55,40.06-44.69l3.84,3.33-1.26-5a169.54,169.54,0,0,1,16.27-9.17l5,4.34-1.52-6a222.11,222.11,0,0,1,24.89-9.87l5.54,9.46.93-11.51a285.21,285.21,0,0,1,59.56-11.3c8.54,0,12.07,10.71,12.07,10.71l-10.15,14.25c-12.7-2.06-27-4.29-37.77-3.78l-.25-.79-.43.81a161.61,161.61,0,0,0-61.84,15.61l-.05-.1v.13C72.63,251.12,52.43,274,47.16,280.4Z"/><path class="cls-3" d="M101.35,237.23l.05.1-.06,0Z"/><path class="cls-3" d="M163.92,221.7l-.68,0,.43-.81Z"/><path class="cls-2" d="M226,307.89l12.32,10.58a112.68,112.68,0,0,0-3.32,24.4l-9,3.67,9,4.26a162.62,162.62,0,0,0,1.66,18.92l-9.6,1.94A161.46,161.46,0,0,1,226,307.89Z"/><path class="cls-2" d="M237.53,375.15a238,238,0,0,0,19.06,59.17c-5-6.59-22.68-31.5-29.5-62.59Z"/><path class="cls-2" d="M252.11,286.8l-9.51,19.08-16.45,1.34c2-10.57,7.42-24,12.33-35.9Z"/><path class="cls-3" d="M256.59,434.32c.26.54.41.83.41.83-16.46-13-27.3-30.49-34.34-49.21l4.12-3-5.18.09a172.7,172.7,0,0,1-5.21-17.94l5.38-3.9-6.22.1a222,222,0,0,1-3.92-26.48l10.47-3.24-11-3.54a285.43,285.43,0,0,1,2.63-60.56c1.93-8.32,13.19-9.3,13.19-9.3l11.55,13.14c-4.91,11.89-10.37,25.33-12.33,35.9l-.83.07.7.6a161.46,161.46,0,0,0,1,63.77l-.11,0,.13,0C233.91,402.82,251.59,427.73,256.59,434.32Z"/><path class="cls-3" d="M227,371.69l.11,0,0,.07Z"/><path class="cls-3" d="M226.15,307.22c0,.22-.09.45-.13.67l-.7-.6Z"/><circle class="cls-4" cx="256.01" cy="234.18" r="132"/></g><g id="letters"><path class="cls-5" d="M205.35,161.93H151.1c9.35,5.61,17.62,16.49,18.41,26.75,0,2,5,7,8,11,3,5-7,12-6,15,3,12,25,23,8,35-3,3,2,5,0,8-3,4-7,3-11,5-3,2-5,9-9,9-10.45,0-18.34,5.12-26.45,10.34H190.6Z"/><path class="cls-6" d="M168.51,262.68c4-2,8-1,11-5,2-3-3-5,0-8,17-12-5-23-8-35-1-3,9-10,6-15-3-4-8-9-8-11-.79-10.26-9.06-21.14-18.41-26.75H102.42L87.67,282h45.39c8.11-5.22,16-10.34,26.45-10.34C163.51,271.68,165.51,264.68,168.51,262.68Zm-36-66.43h34.31l-1,8.57H131.5Zm-5.32,42.89h34.31l-1,8.57H126.18Z"/><path class="cls-5" d="M213.93,161.93H316.87L302.11,282H267.8L271,256.29H236.66L233.49,282H199.18ZM244,196.25,240.87,222h34.31l3.17-25.73Z"/><path class="cls-5" d="M337.51,222.68c-4-2,2-7,3-10,2-7-1-13,2-21,4.08-8.14-4.46-22.92,2.51-29.75H325.44l-9.52,77.21h27.26C345.94,233,347.56,227.37,337.51,222.68Z"/><path class="cls-6" d="M424.17,196.25l4.21-34.32H345c-7,6.83,1.57,21.61-2.51,29.75-3,8,0,14-2,21-1,3-7,8-3,10,10.05,4.69,8.43,10.28,5.67,16.46h41.36l-1,8.57H339.74c-.09.33-.16.65-.23,1,0,5,7,6,1,10,9.16,7.76,17.83,16,27.4,23.34h45.71l9.52-77.2H354.52l1-8.57Z"/><path class="cls-5" d="M339.51,248.68c.07-.32.14-.64.23-1H314.89L310.69,282h57.22c-9.57-7.34-18.24-15.58-27.4-23.34C346.51,254.68,339.51,253.68,339.51,248.68Z"/><polygon class="cls-7" points="120.51 252.68 125.51 252.68 127.22 238.99 122.22 238.99 120.51 252.68"/><polygon class="cls-7" points="127.51 196.68 125.88 209.76 130.88 209.76 132.51 196.68 127.51 196.68"/><polyline class="cls-7" points="123.51 247.68 160.51 247.68 159.51 252.68 122.04 252.68 123.51 247.68"/><polyline class="cls-7" points="129.51 204.68 165.51 204.68 164.51 209.68 128.04 209.68 129.51 204.68"/><polygon class="cls-7" points="350.51 196.68 348.88 209.76 353.88 209.76 355.51 196.68 350.51 196.68"/><polyline class="cls-7" points="352.51 204.68 388.51 204.68 387.51 209.68 351.04 209.68 352.51 204.68"/><polygon class="cls-7" points="314.51 247.68 314.04 252.68 382.51 252.68 383.51 247.68 314.51 247.68"/></g><g id="men"><ellipse class="cls-5" cx="261.22" cy="465.32" rx="56.25" ry="6.25"/><path class="cls-8" d="M247.86,269.46l-1.2.14Z"/><path class="cls-8" d="M248.9,269.33l-.46.06Z"/><path class="cls-8" d="M249.63,269.24l-.4.05Z"/><path class="cls-8" d="M264.35,443.69h.57c-.09-.72-.18-1.43-.25-2.14A14.17,14.17,0,0,1,264.35,443.69Z"/><path class="cls-8" d="M245.64,269.73l-1.37.16Z"/><path class="cls-8" d="M249.63,269.24l-.4.05Z"/><path class="cls-8" d="M249.7,269.23h0Z"/><path class="cls-9" d="M259,327.18c.49,7.22,1.1,16.32.83,18.22a52.57,52.57,0,0,0-.29,7.49,6.9,6.9,0,0,1,.31-1.88A31.52,31.52,0,0,0,259,327.18Z"/><path class="cls-9" d="M259.82,355.75a6.24,6.24,0,0,1-.26-1.18,60.37,60.37,0,0,0,1.58,11.09l3,8.62-1.23,22.85s.59,7.68,1.12,16.85q.1-3.48.2-6.93C264.65,390.23,267.62,372.11,259.82,355.75Z"/><path class="cls-8" d="M241.18,270.27l-1.37.16Z"/><path class="cls-10" d="M281.58,436.75c-2.08,3.56-5.58,5.7-9.62,7.06,6.42.19,14.89.69,17,2,0,0-1.78-22.42-.08-32.34,0,0,1.88-5.13,2.76-15-1.74,4.07-4.52,7.42-4.93,11.56C285.41,419.07,285.87,429,281.58,436.75Z"/><path class="cls-8" d="M291.78,379.82v-3.67c-2.51-4.73-4.55-9.57-4.79-14.86-.46-14.66-.5-29.32,5.07-43.56,3.86-8.63-.91-19-1.36-28.88,0-1.73-1.74-3.88-3-6a8.26,8.26,0,0,0,3-13.38c2.15-.43,1.72-2.16,1.71-3.88-18.95,6.08-38.36,3.11-58.19,7-3.79.43-7.18-2.44-10.15-5.38l-10.15-.79c-1.28,12.42-4.24,24.42-6.35,36.85-1.7,11.64,1.35,22.85.51,34.49,0,.86-.42,2.59-.42,3.88.37,10.66.2,21.05.56,31.6.47,1.15,1,2.4,1.49,3.73,3.4,8.52,7.9,20.09,10.79,27.53a24.7,24.7,0,0,1,5-11.16c4.36-6.07,10.29-11.09,12.47-17.71,0-1,0-2,0-3v.43c0-1.72-1.3-3.88-1.73-4.74-1.76-11.39-1.58-24.45,3.87-34.75,1.44-4.24,5.75-16.14,10.64-21.76l2.13-11.22s5.64,14.65,5.65,17.66c0,1.12.25,4.71.53,8.94a31.52,31.52,0,0,1,.85,23.83,6.9,6.9,0,0,0-.31,1.88q0,.81.06,1.68a6.24,6.24,0,0,0,.26,1.18c7.8,16.36,4.83,34.48,4.44,51.3q-.09,3.45-.2,6.93c.59,10.13,1.09,22.1.61,27.58.07.71.16,1.42.25,2.14,1.13,0,3.83,0,7,.11,4-1.36,7.54-3.5,9.62-7.06,4.29-7.77,3.83-17.68,5.1-26.74.41-4.14,3.19-7.49,4.93-11.56A124.54,124.54,0,0,0,291.78,379.82Z"/><path class="cls-10" d="M220.45,404.51l2.86,7.38,3.46,3.87s21.59,15.9,18.95-6.51c0,0-.35-1.83-.94-4.45-1.17-5.15-3.29-13.39-5.58-17.09,0,0,.05-.19.13-.54a41.77,41.77,0,0,1-1.44-11.53c-2.18,6.62-8.11,11.64-12.47,17.71A24.7,24.7,0,0,0,220.45,404.51Z"/><path class="cls-10" d="M297.62,299.18l-.54-43.12s-19.35,9.78-47.38,13.17h-.07l-.4.05-.33,0-.46.06-.58.07-1.2.14-1,.13-1.37.16-2.37.29h-.05l-.67.08-1.37.16-.2,0h0l-.57.07-.87.1-.47.06-.22,0-.21,0h0l.21,0,.22,0,.47-.06.87-.1.57-.07h0l.2,0,1.37-.16.67-.08h.05l2.37-.29,1.37-.16,1-.13,1.2-.14.58-.07.46-.06.33,0,.4-.05h.07l-25.68-2c3,2.94,6.36,5.81,10.15,5.38,19.83-3.93,39.24-1,58.19-7,0,1.72.44,3.45-1.71,3.88a8.26,8.26,0,0,1-3,13.38c1.3,2.15,3,4.3,3,6,.45,9.91,5.22,20.25,1.36,28.88-5.57,14.24-5.53,28.9-5.07,43.56.24,5.29,2.28,10.13,4.79,14.86,0-8.69.1-30.08.77-33.85C293.4,337.56,299,314.69,297.62,299.18Z"/><path class="cls-11" d="M237.87,373.05v-.43c0,4.76,0,9.89,1.46,14.55.44-2.07,1.62-10.14-3.2-22.31,0,0,1.23-25.44,3.37-29.76,0,0,.18-.57.51-1.54-5.45,10.3-5.63,23.36-3.87,34.75C236.57,369.17,237.87,371.33,237.87,373.05Z"/><path class="cls-8" d="M239.61,270.46h0Z"/><path class="cls-8" d="M241.18,270.27l-1.37.16Z"/><path class="cls-8" d="M239,270.53l-.87.1Z"/><path class="cls-8" d="M237.26,270.74Z"/><path class="cls-8" d="M237.69,270.69l-.22,0Z"/><path class="cls-9" d="M208.12,373.12l0,.13c-.36-10.55-.19-20.94-.56-31.6,0-1.29.43-3,.42-3.88.84-11.64-2.21-22.85-.51-34.49,2.11-12.43,5.07-24.43,6.35-36.85l-3-.24s-.43,3-.43,3.88.46,9.92.46,9.92-5.14,15.53-5.13,16.39-2.48,44.85.55,51.31A44,44,0,0,0,208.12,373.12Z"/><path class="cls-8" d="M245.64,269.73l-1.37.16Z"/><path class="cls-8" d="M241.9,270.18h0Z"/><path class="cls-8" d="M239,270.53l-.87.1Z"/><path class="cls-12" d="M295.85,281.93s-5.18-2.14-4.74.45,6.77,13.21,2.12,16.52-25.36,1.64-25.35,5.09-9,28.48,1.81,34.92c0,0,16.84,9.88,20.28,3.83S295.51,319,295.51,319,298.93,307.8,295.85,281.93Z"/><path class="cls-12" d="M273.67,379.43s-11.64,0-6.87,10.36S272,417.38,269.48,426c0,0-.84,8.63,5.62,6.46s6.42-17.7,6.42-17.7,6.39-33.64,2.93-34.93S273.67,379.43,273.67,379.43Z"/><path class="cls-11" d="M246.67,270.41c-.42,1.73.9,15.52.91,19.4l.44,3h1.29s-2.63-19.4-1.78-22.42Z"/><path class="cls-13" d="M218.68,284.28c-4.3,4.32-6,5.62-6.86,13s-2.07,38.38-2,43.12,18.13,9,19.84,3.4,5.57-14.67,3.83-19.84,4.23-32.35-.53-37.51S218.68,284.28,218.68,284.28Z"/><path class="cls-11" d="M249.76,297.14s-20.68,9.1-29.3,9.12c0,0-3,2.6-.43,2.16s20.26-3.07,20.26-3.07l-2.15,2.16s-13.36,3.49-13.35,4.35,1.29,2.15,3.88,1.71,12.93-1.75,12.93-1.75l-2.15,1.73-11.2,4.34.86.86,11.64-3.05.43,2.15-7.32,3v.86l6.47-.88.12,11.62s5-15.51,10.2-20.69l2.13-11.22s5.89,14.89,5.77,18.21c0,0-.56-5.72,1.16-5.29a23.39,23.39,0,0,0,5.61,0s-6.47-1.27-7.34-3.43l-2.18-8.18s1.29-3.46,5.6-2.17,21.56.81,21.56.81,9.06-.46,11.21-2.62c0,0-2.15,1.73-7.33.45,0,0-13.36,1.76-23.72-.37h-6.89s12.91-6.93,18.09-7.8,14.22,0,14.22,0l-2.15-.85s-9.49-1.7-15.1,0-17.65,7.81-17.65,7.81Z"/><path class="cls-13" d="M250.55,271.27s-2.58,0-2.14,3.88,1.76,16,1.76,16,3,2.15,3.88,0,.85-7.76.85-7.76,1.26-12.08-1.33-12.07Z"/><path class="cls-5" d="M282,438.08c1,1,3,2.49,3,5,0,.5,1.5,1,2,1.49v2c.79-1.2,1,.14,1.5.48v-2.48l-1.49-1s1-4.49,0-5.49-3.5-4.48-8.49-5.46-8,3-10,4.51l0,0a11.79,11.79,0,0,0,1,2C273,436.11,279,434.1,282,438.08Z"/><path class="cls-6" d="M263.1,469.05c8-.52,17.46,1.95,21.93-4.05,1.38-1.84-.22-5.81,2.67-8.77a2.6,2.6,0,0,0-.2-.71c-.5-1,1-2.49,1-2.49v-6c-.54-.34-.71-1.68-1.5-.48v-2c-.5-.49-2-1-2-1.49,0-2.49-2-4-3-5-3-4-9-2-12.47,1a11.79,11.79,0,0,1-1-2c-2,1.52-1.45,5.47-1.45,5.47-2-1.49-2.49.5-2.49.5v5s-.48,8.48-.47,12-3,6.49-3,6.49V471c.12.17.23.33.35.48C261.84,470.1,262.34,469.05,263.1,469.05Z"/><path class="cls-5" d="M290.51,463.49c-2.13-.85-2.45-5.36-2.81-7.26-2.89,3-1.29,6.93-2.67,8.77-4.47,6-13.95,3.53-21.93,4.05-.76,0-1.26,1.05-1.64,2.47,3.11,3.93,8.92,3,16.12,3.47,7.48.48,12.46-3,12.95-4S290.51,463.49,290.51,463.49Z"/><ellipse class="cls-14" cx="268.27" cy="446.1" rx="0.91" ry="1" transform="translate(-1.1 0.66) rotate(-0.14)"/><ellipse class="cls-14" cx="268.05" cy="449.59" rx="1.14" ry="1" transform="translate(-1.11 0.66) rotate(-0.14)"/><ellipse class="cls-14" cx="283.71" cy="446.56" rx="0.91" ry="1" transform="translate(-1.1 0.7) rotate(-0.14)"/><ellipse class="cls-14" cx="283.49" cy="450.05" rx="1.14" ry="1" transform="translate(-1.11 0.7) rotate(-0.14)"/><path class="cls-14" d="M270,446.09s6.48-1,11,.47v-1S270.52,444.1,270,446.09Z"/><path class="cls-14" d="M270,450.58s5.89-1,10,.47v-1S270.49,448.58,270,450.58Z"/><path class="cls-14" d="M270.79,455.32s4.87-1,8.25.48v-1S271.16,453.32,270.79,455.32Z"/><path class="cls-14" d="M271.66,459.2s3.85-1,6.52.48v-1S272,457.2,271.66,459.2Z"/><path class="cls-6" d="M226.33,414.9s2.61,9.48,2.19,12.5-.8,25.44.07,28,6.06,11.63,12.52,9,9.47-6.49,9.89-13.39-2.62-14.22-1.77-17.68S252.64,417,252.64,417s1.7-9.92-5.64-12.49l-2.17-5.17-1.27,9.06s1.3.43,1.3,3a24.67,24.67,0,0,1-1.27,6.47,14.2,14.2,0,0,1-.86,2.59s-.44-4.75-3.89-3.88-3.88,1.31-6.9.45a17.55,17.55,0,0,1-5.61-3A.6.6,0,0,0,226.33,414.9Z"/><path class="cls-5" d="M232.74,461.53s7.95,5.07,14.82-5.72a1,1,0,0,1,.44,1.29c-.43.86-6.46,6-6.46,6s.66,1.16,2.05.15c0,0-4.36,2.5-8.16.76S232.74,461.53,232.74,461.53Z"/><path class="cls-5" d="M234.59,440.75s-3.88,0-3.46-3.44h1.73A3.4,3.4,0,0,0,234.59,440.75Z"/><path class="cls-5" d="M240.62,440.3s2.16-.86,2.15-2.59a1.49,1.49,0,0,1,.44.86C243.21,439,243.64,440.3,240.62,440.3Z"/><path class="cls-5" d="M250,412.69s.87,4.31-.41,7.33a10.59,10.59,0,0,0,1.71-4.75C251.34,413.11,250,412.69,250,412.69Z"/><path class="cls-5" d="M229.43,446.37s-.84,9.05,6.06,11.62c0,0-2.59-2.15-2.59-3,0,0-2.59-2.15-2.6-6.89S229.43,446.37,229.43,446.37Z"/><path class="cls-5" d="M230.26,434.29s2.6,3.88,10.35,2.13c0,0,.86-.86.43-1.29s-2.58,1.73-6.46.45-3.89-2.15-3.89-2.15S229.83,433.43,230.26,434.29Z"/><path class="cls-5" d="M231.12,431.27s1.73,3.88,9,1.27l-.43-.86s-3.88,1.31-6.9,0S231.12,431.27,231.12,431.27Z"/><path class="cls-5" d="M227.82,420.22s-1-4.89.24-3.17,1.3,2.59,3.46,2.58l7.76,0L241,420s.85-1.3-.44-1.29l-8.62,0s-2.16,0-2.59-.86a7.91,7.91,0,0,0-1.3-1.72S226.27,414.78,227.82,420.22Z"/><g id="B4zZdB.tif"><path d="M274.16,437.85a2.29,2.29,0,0,0-.1.23,1.88,1.88,0,0,0-.12.48.86.86,0,0,0,.18.62.83.83,0,0,0,.39.24,1.33,1.33,0,0,0,.34.05,1.49,1.49,0,0,0,.36-.05l.88-.25.73-.19.95-.26,1.18-.33.86-.23.92-.26.57-.15.22-.06h.06s0,0,0,0l-.31.14-.76.33-1,.42-1,.44-.95.41-.65.28-.87.38-.66.28a5.77,5.77,0,0,1-.79.29l-.36.05a1.16,1.16,0,0,1-.49-.05,1.25,1.25,0,0,1-.44-.27.64.64,0,0,1-.21-.47,1.42,1.42,0,0,1,.06-.46,3.38,3.38,0,0,1,.34-.72,4.17,4.17,0,0,1,.37-.56l.3-.37Z"/></g><g id="B4zZdB.tif-2" data-name="B4zZdB.tif"><path d="M232.39,420.42l-.06.35a4.29,4.29,0,0,0-.08.73,2.31,2.31,0,0,0,.12.93.74.74,0,0,0,.27.37.46.46,0,0,0,.24.08.57.57,0,0,0,.25-.08l.61-.37.51-.29.66-.4.82-.49.6-.35.64-.38.39-.23.16-.09s0,0,0,0l0,.06-.21.2-.53.51-.69.64-.68.66-.66.62-.45.42-.61.58-.46.43a3,3,0,0,1-.55.42,1.25,1.25,0,0,1-.25.09.43.43,0,0,1-.34-.09,1,1,0,0,1-.31-.4,1.88,1.88,0,0,1-.14-.72,3.94,3.94,0,0,1,0-.69,7.38,7.38,0,0,1,.23-1.1c.08-.29.17-.57.26-.84l.21-.57Z"/></g><path class="cls-15" d="M271.72,113.41c-5.59,3-8.59,10.37-15.06,10-3.45-.43-4.76-4.73-4.77-8.18,0-3-4.87-5-9-5.19l-.93,5.21,2.17,6.46L256.68,132l15.13-5.47A50,50,0,0,0,271.72,113.41Z"/><path class="cls-16" d="M274.82,104.33l-3.13-5.15-28,6.54-.77,4.28c4.11.19,9,2.19,9,5.19,0,3.45,1.32,7.75,4.77,8.18,6.47.41,9.47-6.93,15.06-10a50,50,0,0,1,.09,13.11l1.67-.61Z"/><path class="cls-6" d="M238.93,101.42S228.14,98,226,108.35c0,0,11.23,10.75,10.81,15.07,0,0-3.44,1.3-2.55,12.5s-4.1,87.11-4.1,87.11l-11.55,37.54-6.91-4.3L210,267.49s6.48,4.29,28,2.51c0,0,45.26-3.13,57.74-13.94l-30.61,1.81,3.36-38.39,5.48-48.3,7.7-26.75,2.56-11.22,20.67-10s.84-7.33-2.62-9.91c0,0-22.45-14.18-27.19-14.6,0,0-2.59,0-2.15,2.17s1.33,15.08,0,19c0,0,0,5.17-.41,5.6s-15.51,5.65-15.51,5.65L246.73,120.8s-3.46-8.18-3.9-9.9C242.83,110.9,240.67,109.18,238.93,101.42Z"/><path class="cls-14" d="M230.75,107.05l6-3.9s.86-.86-2.15,0S228.59,105.33,230.75,107.05Z"/><path class="cls-14" d="M274.28,100.47a21.86,21.86,0,0,0,2.16,3c.87.86,9.92,2.14,18.14,13.76l5.18,2.14s2.59-1.73,2.15-2.59-11.66-7.3-11.66-7.3l-11.66-7.74S274.27,99.18,274.28,100.47Z"/><path class="cls-14" d="M295.47,127.15s-22.39,10-40.51,6.57c0,0,1.73,2.58,21.13,1.24l4.31-.87a24.76,24.76,0,0,1,.45,9.91l2.56-10.35Z"/><path class="cls-14" d="M237.69,123.84s-4.77.19-3.65,10.66S236,238.57,219.35,258.86c0,0-2.45,3.44.14,4.29,0,0,6.88-8.64,10.31-17.27s7.63-51.76,7.63-51.76l.31-49.15s-2.19-12.93-1.33-13.79a6.22,6.22,0,0,1,2.15-1.3,21,21,0,0,0-.86-2.16c-.44-.86,0-1.72,1.29-.86C239,126.86,241.14,124.7,237.69,123.84Z"/><path class="cls-14" d="M277.29,134.49l1.82,3s-10.69,34.52-11.1,42.28-6.75,61.24-6.75,61.24L251.8,251l9-6.49v3l-5.15,6.05,5.59-3.47-1.7,11.22,1.73.86L275.72,160.4l7.16-23.08-.76-3.67Z"/><path class="cls-14" d="M265.87,185.86a60.54,60.54,0,0,0-11.64.46,46.59,46.59,0,0,1-11.65,0,3,3,0,0,0,2.16,1.29c1.3,0,6.91,1.27,10.35.4s11.21-.46,11.21-.46S267.16,185.86,265.87,185.86Z"/><path class="cls-14" d="M236.12,187.66s11.22,3,11.22,3.85l-3.88.44a12.83,12.83,0,0,1-7.33-1.7Z"/><path class="cls-14" d="M234.87,205.77s8.21,6.88,13.38,6c0,0,1.3.43,0,.43s-6,.45-8.19-.84a54,54,0,0,1-5.62-4.3Z"/><path class="cls-14" d="M237.24,117.81s9.52,11.62,10.38,12.05l1.29-.87-12.1-12.9Z"/><path class="cls-17" d="M219,256.25s26.32,4.68,52.6-.56,27.58-6.53,27.58-6.53l.44,5.17s-27.12,17.31-77.57,14.85L210,267.49l2.55-12.08Z"/><path class="cls-18" d="M203,220.43a133.18,133.18,0,0,1,6-16.05A58.63,58.63,0,0,0,203,220.43Z"/><path class="cls-18" d="M238.12,123.84s-3.05-13.36-9.09-13.77l-25.82,18.17s-3.86,10.79-5.58,12.52-.84,8.19-.84,8.19L182.62,172.7s-3.44,2.16-.84,9.92,6.08,18.52,7.38,20.68,6.05,6,6.06,8.17,6.93,11.63,6.93,11.63.3-1,.8-2.67a58.63,58.63,0,0,1,6-16.05c.92-1.9,2.25-3.29,2.67-4.23l.36-.48c-.2-.3-.73-1.15-1.35-2.32a10.51,10.51,0,0,1-6.36-6.16c-2.6-7.76,3.42-13.38,6-20.28,2.57-6,0-13.37,1.24-20.27,4.83,11,4.48,23,2.2,34.88a44.42,44.42,0,0,1-.78,13s-.36.4-.94,1.18l.08.12a3.33,3.33,0,0,0-.44.36,45.53,45.53,0,0,0-2.67,4.23,133.18,133.18,0,0,0-6,16.05c-.3,1.4-.58,1.14-.8,2.67,0,0,6.91,5.59,6.91,7.31s-4.71,10.36-4.71,13.38a53,53,0,0,0,1.32,8.62l13,10.31s12.47-13.39,16.65-68.16c0,0,2.44-56.49.27-61.66A7.28,7.28,0,0,1,238.12,123.84Z"/><path class="cls-19" d="M208.52,185.57l4.3-6.48a55,55,0,0,1,.83,6.43c2.28-11.86,2.63-23.92-2.2-34.88-1.27,6.9,1.33,14.23-1.24,20.27-2.57,6.9-8.59,12.52-6,20.28a10.51,10.51,0,0,0,6.36,6.16C209,194.3,206.79,189.06,208.52,185.57Z"/><path class="cls-18" d="M211.93,199.67l-.36.48a3.33,3.33,0,0,1,.44-.36Z"/><path class="cls-20" d="M329.18,159.84,316.6,129.69l-11.66-7.31s-19.81,9.11-24.55,9.12l.44,1.72-9,33.22s-8.51,46.16-8.44,71.17l-3.82,25.44s12.52,5.15,28-1.36c0,0,12.06-4.77,12.05-8.22l-1.77-19.83s30.14-15.16,40.88-33.3C338.77,200.34,343.49,192.14,329.18,159.84Zm-32.65,49.23c-1.31-8.19,7.26-29.34,7.26-29.34,4.32,3.87,8.67,17.23,8.67,17.23C307.73,202.14,296.53,209.07,296.53,209.07Z"/><path class="cls-21" d="M226.45,113.52l-11.61,10,6.48,7.74-9.91.89-7.32,4.76s-.86,2.16-.42,3-3-1.29-3-1.29-1.71,3.89,3.9,7.32c0,0,2.17,2.59.87,2.59s-6.47-3.86-6.47-3.86-1.3.86,0,2.15,6.91,5.16,6.91,5.16.87,1.72-.43,1.29-6.91-5.15-7.34-4.29,3.47,5.16,3.47,5.16-2.59.44-3.46-.85c0,0-2.57,5.18,9.52,11.62,0,0,0,2.15-1.72,1.3s-9.94-7.31-10.38-9.9c0,0-1.71,3.89,6.93,11.2a2.44,2.44,0,0,1-2.59,0c-1.29-.86-7.34-7.31-6.92-9l-.85,3s.44,3.45,2.6,5.16c0,0,0,3-1.29,1.3s-3.46-4.3-3.46-4.3l-2.58,3.88-2,.56L196.79,149s-.57-6,1.21-8.62,5.21-12.09,5.21-12.09l25.17-17.64Z"/><path class="cls-21" d="M183.61,181.94a.43.43,0,0,1,0-.4,5.26,5.26,0,0,1,6.37-2.82c3.51.95,8.93,11.34,12.74,17.72a6.24,6.24,0,0,1-1.7,8.26h0a3.14,3.14,0,0,1-4.55-.93C193.27,198.42,186.59,187.19,183.61,181.94Z"/><path class="cls-21" d="M222,244.61s-3.9-9.48-1.31-7.76a17,17,0,0,1,3.89,3.44Z"/><path class="cls-21" d="M224.16,234.25s-6.48-7.31-3-9.48c0,0,5.61,3,5.62,5.6a13.3,13.3,0,0,1-1.28,5.17Z"/><path class="cls-21" d="M221.54,219.6l7.34,6s1.72-4.32.42-5.61-5.19-9-5.19-9Z"/><path class="cls-22" d="M294.78,197.86s12.8-55.22,12.82-47.89-2.56,12.08,0,17.68,9.53,16.79,10.4,18.94,6.91,4.3,4.32,5.17-23.67,18.6-23.67,18.6l14.54-14.53L303.36,178s-7,19.7-6.92,29.91Z"/><path class="cls-22" d="M305.38,124.54l-22.83,8.68S267.6,191,266.38,220.35s-2.94,32.78-2.94,32.78l-2.68,9.25s5.2-36.42,4.33-41.16,5.9-55.64,11.05-65.57l5.55-23.29,23.12-9.65Z"/><path class="cls-22" d="M297,234.5l-7.76,2.18s4.81,24.13-15,26.77a34.4,34.4,0,0,0,25.41-10l-1.77-19.83Z"/><path class="cls-22" d="M290.51,212.53s-3.42,11.22,0,19l2.16,1.29s-3.9-9.48-.89-14.23L294,210.8Z"/><path class="cls-22" d="M202.58,223.1S204.27,211,212,202.38c0,0-6,12.52-6,17.69,0,0-1.72,3.88,2.6,6l.87,3.88Z"/><path class="cls-22" d="M279.24,189.28S278.45,219,284.09,232c0,0,.85-5.61.41-7.76S281,210.83,279.24,189.28Z"/><path class="cls-23" d="M268,97V95c0-4-3-5-6-7,6.28-4.49.49-9.78-2.21-13.71l-23.09.4s1.34,16.82.91,17.68a7,7,0,0,1,1.3,2.58c0,.87-.42,6.47,0,8.2s4.26,9.21,4.26,9.21,3.6,9.48,4.44,9.82,8.17,2.48,12,.32a37,37,0,0,0,7.75-6.49,42,42,0,0,0,2.48-4.29A94.88,94.88,0,0,0,272,97Z"/><path class="cls-24" d="M277.26,84.51s-6.39,2.06-6.63,6.43l-1.14-9.86-3.9-6.89-5.8.1c2.7,3.93,8.49,9.22,2.21,13.71,3,2,6,3,6,7v2h4a94.88,94.88,0,0,1-2.1,14.72,23.53,23.53,0,0,0,2.66-8.23l.42-3.88S284.17,90.53,277.26,84.51Z"/><path class="cls-18" d="M238.14,93.39a6,6,0,0,0,3.36,2c2.15.42,6,.85,6,.85v-.87l-9.62-3Z"/><path class="cls-18" d="M253.14,97.07a49.34,49.34,0,0,1,11.64-1.75l-.43-.86-3-.42L254,95.78Z"/><path class="cls-18" d="M271.7,104.36l-.44-3.88-.86-.86c-.83,15.52-9.45,16.84-9.45,16.84l-.44-3v-1.72l-1.3-.43h-3.44l-2.16-.86h-8.19l-1.73.43-4.41-6.56,4.28,9.35,4,8.42,2.5.75,7.27.4,5.51-2.68s2.82-2.83,4.42-4.19,4.49-9.12,4.49-9.12Zm-12,12.53-2.15,2.16a9.78,9.78,0,0,1-4.31,1.31c-2.16,0-3,.44-4.31-1.29s-3-3.87-3-3.87l-.87-1.29v-.86l3-.87,4.31-.44,5.17,1.28,1.73.85S260.09,116.46,259.66,116.89Z"/><path class="cls-25" d="M245.86,113.91s3,1.71,4.31,1.71,3.88.42,5.17,0,3.45-1.3,3.45-1.3h-8.62l-3-.86h-1.3Z"/><path class="cls-26" d="M245.85,113.05a5.62,5.62,0,0,1,3.45-.44,19.47,19.47,0,0,0,3.88.42h3.13l1.9.49.58.79-9.09,0-3.41-.8Z"/><path class="cls-23" d="M273.4,92.28s.42-2.59,1.28-3,1.72-3.88,3-2.59a2.7,2.7,0,0,1,.44,3s.43,0-.43-.86l-.87-.86-1.29.87.44.86s1.72.86,1.72,1.29-.42,1.72-.86,1.29A6.19,6.19,0,0,1,276,91s-1.3-.43-1.29,0a4.33,4.33,0,0,1-.43,1.29Z"/><path class="cls-27" d="M238,80.73l0,8.19s.41-7.76,2.57-7.77a38.41,38.41,0,0,1,6,.85s-4.33-5.16-6.91-4.73S238,80.73,238,80.73Z"/><path class="cls-28" d="M248,99.67a26.87,26.87,0,0,1-.42,5.18c-.43,1.29-2.58,2.16,0,3a17.38,17.38,0,0,0,1.29-3.89,33.1,33.1,0,0,0,.42-5.17A1.52,1.52,0,0,0,248,99.67Z"/><path class="cls-15" d="M247.16,104.06s-2.15,1.73-1.29,2.59a1.33,1.33,0,0,0,.86-.43,7.3,7.3,0,0,0,.86-2.16Z"/><path class="cls-15" d="M253.59,104.83a1.54,1.54,0,0,1,1.3.86c.43.86.43,1.73.86,1.29s0-.86,0-1.29,0-.86-1.29-.86A6.47,6.47,0,1,1,253.59,104.83Z"/><path class="cls-29" d="M251.45,109.58s2.59,0,3-1.3c.31-.91.87,0,.87,0S254,110,252.74,110,251.45,109.58,251.45,109.58Z"/><path class="cls-27" d="M252.31,107.86s2.59.42,2.15-.87-1.29-.43-1.29-.43L252.3,104s-.86,0-.86.44A10.19,10.19,0,0,0,252.31,107.86Z"/><path class="cls-19" d="M277.67,76.75c-.43-.86-.88-6.47-.88-6.47l.86-.86s.42-4.31-.44-4.31a1.93,1.93,0,0,1-1.3-.43s-.44-6.9-6.05-8.18l-1.3-3.44-4.31.87-3.45-.85-1.73.43-5.6.45-2.16.43h-1.72s-9.9,5.63-12.49,7.79-5.59,3.46-4.71,11.22c0,0,0,1.3,3,1.72,0,0,.45,7.33,1.32,10.34,0,0,.84-10.35,1.7-9.92s3,.86,4.75,1.72,5.18,1.71,7.76.84a36.6,36.6,0,0,1,7.48-1.57A8.4,8.4,0,0,0,257,76a8.4,8.4,0,0,1,1.42.54,3.13,3.13,0,0,1,2,.25c.87.86,6.47,1.71,6.48,3s-1.28,6.47-.41,7.77c0,0,1.72-1.3,3,0s.88,6.46.88,6.46l2.14-5.18S275.1,85,276,85a1.93,1.93,0,0,0,1.3-.44S278.1,77.61,277.67,76.75Z"/><path class="cls-30" d="M240,96v1l7,2-.38-1.38a2.71,2.71,0,0,0-1.49-.76Z"/><polygon class="cls-30" points="255 98 257 99 265 97 264 96 257 97 255 98"/></g><g id="vimeo"><g id="ipCq1h.tif"><path class="cls-6" d="M287.12,142.5a2.57,2.57,0,0,0,.18.33s0,.07,0,.1a.16.16,0,0,0-.09.14c0,.08,0,.11.1.13l.42.08.15,0a.49.49,0,0,1,.28.13l.16.17a.4.4,0,0,1,.1.24.7.7,0,0,0,.08.2,1.63,1.63,0,0,1,.11.17.4.4,0,0,1,.05.26.22.22,0,0,1-.15.19l-.28.11s-.06,0-.06.08a2.26,2.26,0,0,0,0,.58,1.8,1.8,0,0,0,.06.22.25.25,0,0,1,0,.19.42.42,0,0,0,0,.42l.11.23a2.33,2.33,0,0,1,.17.64.86.86,0,0,1,0,.23s0,.07,0,.11h0a.3.3,0,0,1,.29,0,3.37,3.37,0,0,1,.55.38l.06,0a.41.41,0,0,0,.48,0,.4.4,0,0,1,.42.07,3.75,3.75,0,0,1,.24.36c.06.1,0,.16-.08.2a.22.22,0,0,1-.24-.06l-.2-.19c-.07-.07-.14-.05-.22,0s0,0,0,0a1.34,1.34,0,0,0,.07.18.37.37,0,0,1,.08.22l0,.1a1.33,1.33,0,0,1,0,.19,2.57,2.57,0,0,1,0,.83,2.6,2.6,0,0,1-.17.54,3.65,3.65,0,0,0-.14.35.25.25,0,0,0,0,.25.2.2,0,0,1,0,.21c-.1.21-.2.43-.31.63a.44.44,0,0,0-.07.35.56.56,0,0,1,0,.22.11.11,0,0,1,0,.1,1.14,1.14,0,0,0-.24.55c0,.19-.07.38-.11.57a1.3,1.3,0,0,1-.2.49s0,.05,0,.07a.66.66,0,0,1-.06.48.18.18,0,0,1-.1.07,1.21,1.21,0,0,1-.25.08s-.09,0-.11,0a.14.14,0,0,1,0-.14,2.05,2.05,0,0,0,.21-.77,6.45,6.45,0,0,1,.28-1.23,2.75,2.75,0,0,0,.09-.5c0-.26.06-.53.09-.8v-.16h0a1,1,0,0,0-.08.11,3.25,3.25,0,0,1-.23.29.23.23,0,0,1-.09.08.22.22,0,0,1-.23,0c-.08,0-.09-.06-.06-.14s.08-.21.11-.32a2.26,2.26,0,0,0,0-.26.19.19,0,0,0,0-.08h0l-.06.08a1.67,1.67,0,0,0-.25.75,4.92,4.92,0,0,0,0,.94.2.2,0,0,0,0,.11.22.22,0,0,1,0,.23l-.28.45,0,0a.3.3,0,0,1,.08.38.12.12,0,0,1-.07.07l-.16.1a.32.32,0,0,0-.12.14,2.23,2.23,0,0,0-.21.63c0,.05,0,.1-.05.16a1.46,1.46,0,0,0,0,.22v0c0,.13,0,.16-.12.2a2.64,2.64,0,0,1-.4.12c-.09,0-.13,0-.11-.11a.63.63,0,0,1,.07-.22c.1-.22.18-.44.26-.67a3.07,3.07,0,0,1,.17-.42s0,0,0-.06a.32.32,0,0,0,0-.35,1.13,1.13,0,0,1-.18-.67,1.67,1.67,0,0,1,.09-.66,3.89,3.89,0,0,0,.17-.89,1.55,1.55,0,0,1,0-.21c0-.05,0-.08-.06-.1l-.39-.11a0,0,0,0,0-.07,0l-.4.36-.16.1a1.07,1.07,0,0,0-.36.27.44.44,0,0,0-.11.29,1.61,1.61,0,0,1-.07.49,1.42,1.42,0,0,0,0,.36c0,.32,0,.64,0,1,0,0,0,.06.05.07l.35.14s.05,0,.05,0,0,.3,0,.45,0,.09-.06.1a.14.14,0,0,1-.16,0c-.12-.12-.23-.25-.34-.37a.54.54,0,0,1-.17-.29.44.44,0,0,0,0-.15,1.47,1.47,0,0,1-.15-.58,2.35,2.35,0,0,1,0-.65c0-.16.06-.32.08-.48s0-.2,0-.3a1.86,1.86,0,0,1,.34-.85l.24-.35a.3.3,0,0,0,.05-.3,4.37,4.37,0,0,1-.19-1.07,1.32,1.32,0,0,1,0-.44,1.52,1.52,0,0,0,0-.6l-.21-1.61-.06-.32c0-.1-.06-.12-.15-.12a.35.35,0,0,1-.36-.24.17.17,0,0,1,0-.1.53.53,0,0,1,.15-.26.7.7,0,0,0,.15-.19,1.26,1.26,0,0,0,.21-.49,1,1,0,0,1,0-.17.75.75,0,0,1,.1-.2.13.13,0,0,1,.14-.07.25.25,0,0,0,.24-.17s0-.06,0-.08a.49.49,0,0,1-.25-.24.11.11,0,0,1,0-.07.27.27,0,0,0-.12-.21s0-.06,0-.1a2.13,2.13,0,0,1,.47-.37l.12-.08a.25.25,0,0,0,0-.09,1,1,0,0,0,.06-.16c0-.08.07-.15.1-.23a.61.61,0,0,1,.3-.4.31.31,0,0,1,.32,0,.29.29,0,0,0,.3,0l.6-.4c.29-.2.6-.39.89-.6s.73-.57,1.09-.87c.11-.08.1,0,0-.17l-.12-.19c0-.06,0-.09,0-.13a.13.13,0,0,1,.17,0,1.21,1.21,0,0,1,.16.16,2,2,0,0,1,.35.65.17.17,0,0,1,0,.1.32.32,0,0,1-.15.06s-.05,0-.06-.05l-.15-.23-.05-.05h0a1.23,1.23,0,0,1-.29.27l-.85.67c-.25.19-.53.36-.79.54l-.57.37-.2.1Zm-.85.66,0,0-.26.24a.13.13,0,0,0-.05.12c0,.09,0,.17,0,.25a.41.41,0,0,0,.1.22l.15.15c.07.06.12,0,.14-.05a.53.53,0,0,1,.08-.17c.05-.08.11-.14.16-.21l.06-.07h-.08a.14.14,0,0,1-.15-.09.67.67,0,0,0-.09-.14.3.3,0,0,1-.06-.24Zm-.63,3.41c.08.47.08,1,.18,1.44,0,0,0,0,0,0a.14.14,0,0,0,0-.06,2.76,2.76,0,0,0,0-.95A.7.7,0,0,0,285.64,146.57Zm.25,0c0-.13,0-.24,0-.36s0-.05-.06,0l-.12,0s0,0,0,0A.9.9,0,0,0,285.89,146.55Z"/></g></g></svg>