<svg xmlns="http://www.w3.org/2000/svg" viewBox="0 0 204 450"><defs><style>.cls-1{fill:#f7f7f7;}.cls-2{fill:#71bed3;}.cls-3{fill:#80ccdd;}.cls-4{fill:#5fb1c4;}.cls-5{fill:#60adbf;}.cls-6{fill:#78c4d6;}.cls-7{fill:#76c2d3;}.cls-8{fill:#f2f2f2;}.cls-9{fill:#fff;}.cls-10{fill:#e6e6e6;}.cls-11{fill:#e29886;}.cls-12{fill:#d88e80;}.cls-13{fill:#f9f9f9;}.cls-14{fill:#333;}.cls-15{fill:#1a1a1a;}.cls-16{fill:#2d2d2d;}.cls-17{fill:#3f3f3f;}.cls-18{fill:#151316;}.cls-19{fill:#eaa18b;}.cls-20{fill:#f9897a;}.cls-21{fill:#ef8075;}.cls-22{fill:#d38975;}.cls-23{fill:#f2b1a2;}.cls-24{fill:#eda594;}.cls-25{fill:#d88977;}</style></defs><title>myself</title><g id="illustratie-home"><ellipse class="cls-1" cx="108.7" cy="427.64" rx="56.25" ry="6.25"/><path class="cls-2" d="M89.35,231.77l-1.2.15Z"/><path class="cls-2" d="M90.38,231.65l-.46,0Z"/><path class="cls-2" d="M91.12,231.56l-.41.05Z"/><path class="cls-2" d="M105.83,406h.58c-.09-.71-.18-1.42-.26-2.14A13.13,13.13,0,0,1,105.83,406Z"/><path class="cls-2" d="M87.13,232l-1.38.17Z"/><path class="cls-2" d="M91.12,231.56l-.41.05Z"/><path class="cls-2" d="M91.19,231.55h0Z"/><path class="cls-3" d="M100.45,289.49c.49,7.22,1.1,16.32.83,18.23a52.57,52.57,0,0,0-.29,7.49,7.41,7.41,0,0,1,.3-1.89A31.56,31.56,0,0,0,100.45,289.49Z"/><path class="cls-3" d="M101.3,318.07a7.4,7.4,0,0,1-.25-1.18A60.41,60.41,0,0,0,102.62,328l3,8.62-1.24,22.85s.6,7.67,1.13,16.84c.06-2.31.13-4.63.19-6.93C106.13,352.55,109.11,334.43,101.3,318.07Z"/><path class="cls-2" d="M82.67,232.58l-1.38.17Z"/><path class="cls-4" d="M123.06,399.07c-2.08,3.55-5.58,5.69-9.61,7.06,6.42.19,14.89.68,17,2,0,0-1.78-22.42-.08-32.34,0,0,1.89-5.13,2.76-15-1.74,4.07-4.52,7.42-4.92,11.56C126.9,381.38,127.35,391.3,123.06,399.07Z"/><path class="cls-2" d="M133.27,342.13v-3.67c-2.52-4.73-4.56-9.56-4.79-14.86-.47-14.65-.5-29.31,5.07-43.55,3.86-8.64-.91-19-1.37-28.89,0-1.72-1.73-3.87-3-6a8.25,8.25,0,0,0,3-13.37c2.16-.44,1.72-2.16,1.72-3.89-19,6.09-38.37,3.12-58.19,7-3.79.43-7.18-2.44-10.16-5.38l-10.15-.8c-1.27,12.42-4.23,24.43-6.34,36.85-1.7,11.65,1.35,22.85.51,34.5,0,.86-.42,2.58-.42,3.88.37,10.66.19,21,.56,31.6l1.49,3.72c3.4,8.53,7.9,20.1,10.79,27.54a24.87,24.87,0,0,1,5-11.17c4.36-6.06,10.3-11.08,12.48-17.7,0-1,0-2,0-3v.43c0-1.73-1.3-3.88-1.74-4.74-1.75-11.4-1.57-24.45,3.88-34.75,1.43-4.24,5.74-16.14,10.64-21.77l2.13-11.21s5.64,14.64,5.65,17.66c0,1.11.25,4.7.53,8.93a31.56,31.56,0,0,1,.84,23.83,7.41,7.41,0,0,0-.3,1.89c0,.53,0,1.1.06,1.68a7.4,7.4,0,0,0,.25,1.18c7.81,16.36,4.83,34.48,4.44,51.29-.06,2.3-.13,4.62-.19,6.93.58,10.14,1.08,22.1.6,27.58.08.72.17,1.43.26,2.14,1.13,0,3.83,0,7,.12,4-1.37,7.53-3.51,9.61-7.06,4.29-7.77,3.84-17.69,5.11-26.74.4-4.14,3.18-7.49,4.92-11.56A124.51,124.51,0,0,0,133.27,342.13Z"/><path class="cls-4" d="M61.94,366.83l2.85,7.38,3.46,3.87s21.6,15.9,19-6.52c0,0-.35-1.82-.95-4.45C85.09,362,83,353.73,80.69,350c0,0,0-.18.13-.53A41.39,41.39,0,0,1,79.38,338c-2.18,6.62-8.12,11.64-12.48,17.7A24.87,24.87,0,0,0,61.94,366.83Z"/><path class="cls-4" d="M139.11,261.49l-.54-43.11s-19.35,9.77-47.38,13.17h-.07l-.41.05-.33,0-.46,0-.57.07-1.2.15-1,.12-1.38.17-2.37.29h0l-.67.08-1.38.17-.19,0h0l-.57.07-.87.11-.47.06L79,233l-.21,0h0l.21,0,.22,0,.47-.06.87-.11.57-.07h0l.19,0,1.38-.17.67-.08h0l2.37-.29,1.38-.17,1-.12,1.2-.15.57-.07.46,0,.33,0,.41-.05h.07l-25.69-2c3,2.94,6.37,5.81,10.16,5.38,19.82-3.93,39.23-1,58.19-7,0,1.73.44,3.45-1.72,3.89a8.25,8.25,0,0,1-3,13.37c1.3,2.16,3,4.31,3,6,.46,9.92,5.23,20.25,1.37,28.89C128,294.29,128,309,128.48,323.6c.23,5.3,2.27,10.13,4.79,14.86,0-8.68.09-30.08.77-33.84C134.89,299.88,140.44,277,139.11,261.49Z"/><path class="cls-5" d="M79.36,335.37v-.43c0,4.76,0,9.89,1.46,14.55.44-2.07,1.62-10.14-3.21-22.31,0,0,1.23-25.44,3.38-29.76,0,0,.18-.57.51-1.54-5.45,10.3-5.63,23.35-3.88,34.75C78.06,331.49,79.35,333.64,79.36,335.37Z"/><path class="cls-2" d="M81.1,232.77h0Z"/><path class="cls-2" d="M82.67,232.58l-1.38.17Z"/><path class="cls-2" d="M80.52,232.84l-.87.11Z"/><path class="cls-2" d="M78.75,233.06Z"/><path class="cls-2" d="M79.18,233,79,233Z"/><path class="cls-3" d="M49.61,335.44l0,.13c-.37-10.55-.19-20.94-.56-31.6,0-1.3.42-3,.42-3.88.84-11.65-2.21-22.85-.51-34.5,2.11-12.42,5.07-24.43,6.34-36.85l-3-.23s-.42,3-.42,3.88.46,9.91.46,9.91-5.14,15.54-5.14,16.4-2.47,44.85.56,51.31A43.91,43.91,0,0,0,49.61,335.44Z"/><path class="cls-2" d="M87.13,232l-1.38.17Z"/><path class="cls-2" d="M83.38,232.5h0Z"/><path class="cls-2" d="M80.52,232.84l-.87.11Z"/><path class="cls-6" d="M137.34,244.25s-5.18-2.14-4.74.44,6.77,13.22,2.12,16.53-25.36,1.64-25.35,5.09-9,28.48,1.81,34.92c0,0,16.84,9.87,20.27,3.83S137,281.33,137,281.33,140.42,270.11,137.34,244.25Z"/><path class="cls-6" d="M115.16,341.75s-11.64,0-6.87,10.36,5.24,27.58,2.67,36.21c0,0-.84,8.63,5.62,6.45S123,377.08,123,377.08s6.38-33.64,2.93-34.93S115.16,341.75,115.16,341.75Z"/><path class="cls-5" d="M88.16,232.73c-.43,1.73.9,15.52.91,19.4l.44,3H90.8S88.17,235.75,89,232.73Z"/><path class="cls-7" d="M60.17,246.6c-4.3,4.32-6,5.62-6.87,13s-2.06,38.38-2,43.12,18.13,9,19.84,3.4,5.57-14.67,3.84-19.84,4.23-32.35-.53-37.51S60.17,246.6,60.17,246.6Z"/><path class="cls-5" d="M91.24,259.45S70.57,268.56,62,268.58c0,0-3,2.6-.43,2.16s20.26-3.07,20.26-3.07l-2.15,2.16s-13.36,3.48-13.36,4.35,1.3,2.15,3.89,1.71,12.93-1.76,12.93-1.76l-2.15,1.73-11.2,4.34.86.86,11.63-3,.44,2.15-7.32,3v.86l6.47-.88.12,11.62s5-15.51,10.2-20.7l2.13-11.21s5.88,14.88,5.77,18.21c0,0-.57-5.72,1.16-5.3a23,23,0,0,0,5.61,0s-6.48-1.28-7.34-3.43l-2.18-8.19s1.29-3.45,5.6-2.17,21.56.81,21.56.81,9-.45,11.2-2.61c0,0-2.15,1.73-7.32.45,0,0-13.37,1.75-23.72-.38l-6.9,0s12.92-6.93,18.09-7.8,14.23,0,14.23,0l-2.16-.86s-9.49-1.7-15.09,0-17.66,7.8-17.66,7.8Z"/><path class="cls-7" d="M92,233.58s-2.59,0-2.14,3.89,1.76,15.95,1.76,15.95,3,2.15,3.88,0,.84-7.77.84-7.77,1.27-12.07-1.32-12.06Z"/><path class="cls-8" d="M123.46,400.4c1,1,3,2.49,3,5,0,.5,1.49,1,2,1.49v2c.79-1.19,1,.15,1.5.49v-2.48l-1.5-1s1-4.49,0-5.48-3.5-4.48-8.49-5.47-8,3-10,4.52l0,0a12.19,12.19,0,0,0,1,2C114.48,398.43,120.46,396.42,123.46,400.4Z"/><path class="cls-9" d="M104.59,431.36c8-.52,17.46,1.95,21.93-4,1.38-1.85-.23-5.82,2.66-8.78a3.16,3.16,0,0,0-.19-.7c-.5-1,1-2.5,1-2.5v-6c-.54-.34-.71-1.68-1.5-.49v-2c-.5-.5-2-1-2-1.49,0-2.49-2-4-3-5-3-4-9-2-12.46,1a12.19,12.19,0,0,1-1-2c-2,1.52-1.46,5.46-1.46,5.46-2-1.49-2.49.51-2.49.51l0,5s-.48,8.47-.47,12-3,6.49-3,6.49v4.49c.11.17.23.32.35.48C103.32,432.41,103.83,431.36,104.59,431.36Z"/><path class="cls-8" d="M132,425.81c-2.14-.85-2.45-5.37-2.82-7.27-2.89,3-1.28,6.93-2.66,8.78-4.47,6-14,3.52-21.93,4-.76,0-1.27,1.05-1.64,2.48,3.1,3.93,8.91,3,16.12,3.47,7.48.48,12.45-3,13-4S132,425.81,132,425.81Z"/><ellipse class="cls-10" cx="109.76" cy="408.41" rx="0.91" ry="1" transform="translate(-1.01 0.27) rotate(-0.14)"/><ellipse class="cls-10" cx="109.54" cy="411.9" rx="1.14" ry="1" transform="translate(-1.02 0.27) rotate(-0.14)"/><ellipse class="cls-10" cx="125.2" cy="408.87" rx="0.91" ry="1" transform="translate(-1.01 0.31) rotate(-0.14)"/><ellipse class="cls-10" cx="124.98" cy="412.36" rx="1.14" ry="1" transform="translate(-1.02 0.31) rotate(-0.14)"/><path class="cls-10" d="M111.52,408.41s6.47-1,11,.47v-1S112,406.41,111.52,408.41Z"/><path class="cls-10" d="M111.53,412.89s5.89-1,10,.48v-1S112,410.9,111.53,412.89Z"/><path class="cls-10" d="M112.27,417.64s4.87-1,8.25.47v-1S112.64,415.64,112.27,417.64Z"/><path class="cls-10" d="M113.14,421.51s3.86-1,6.53.49v-1S113.44,419.52,113.14,421.51Z"/><path class="cls-9" d="M67.82,377.22s2.61,9.48,2.19,12.5-.8,25.44.07,28,6.06,11.63,12.52,9,9.47-6.49,9.89-13.39-2.63-14.22-1.77-17.67,3.41-16.39,3.41-16.39,1.7-9.92-5.64-12.49l-2.17-5.17-1.27,9.06s1.29.43,1.3,3a24.08,24.08,0,0,1-1.28,6.47,13.48,13.48,0,0,1-.85,2.59s-.44-4.74-3.89-3.87-3.88,1.3-6.9.45a17.69,17.69,0,0,1-5.61-3A.61.61,0,0,0,67.82,377.22Z"/><path class="cls-8" d="M74.22,423.85s8,5.07,14.83-5.73a1,1,0,0,1,.43,1.3c-.43.86-6.45,6.05-6.45,6.05s.65,1.16,2,.14c0,0-4.36,2.5-8.16.76S74.22,423.85,74.22,423.85Z"/><path class="cls-8" d="M76.08,403.07s-3.88,0-3.46-3.44h1.72A3.41,3.41,0,0,0,76.08,403.07Z"/><path class="cls-8" d="M82.11,402.62s2.15-.87,2.15-2.59a1.5,1.5,0,0,1,.43.86C84.69,401.32,85.13,402.61,82.11,402.62Z"/><path class="cls-8" d="M91.53,375s.87,4.31-.41,7.33a10.71,10.71,0,0,0,1.71-4.74C92.82,375.43,91.53,375,91.53,375Z"/><path class="cls-8" d="M70.92,408.68s-.84,9.06,6.06,11.63c0,0-2.59-2.15-2.59-3,0,0-2.6-2.15-2.61-6.89S70.92,408.68,70.92,408.68Z"/><path class="cls-8" d="M71.75,396.61s2.6,3.87,10.35,2.13c0,0,.86-.86.43-1.3s-2.58,1.74-6.47.45-3.88-2.14-3.88-2.14S71.32,395.75,71.75,396.61Z"/><path class="cls-8" d="M72.6,393.59s1.74,3.88,9.06,1.27l-.43-.86s-3.88,1.3-6.9,0S72.6,393.59,72.6,393.59Z"/><path class="cls-8" d="M69.31,382.54s-1.06-4.89.24-3.17S70.85,382,73,382l7.76,0,1.72.42s.86-1.29-.43-1.29l-8.63,0s-2.15,0-2.58-.85a8.27,8.27,0,0,0-1.3-1.72S67.76,377.09,69.31,382.54Z"/><g id="B4zZdB.tif"><path d="M115.64,400.17l-.09.22a1.67,1.67,0,0,0-.12.49.79.79,0,0,0,.18.61.74.74,0,0,0,.39.25,1,1,0,0,0,.34,0,1.34,1.34,0,0,0,.35,0l.89-.24.73-.2,1-.26,1.18-.32.86-.24.92-.25.57-.15L123,400h0a.1.1,0,0,1,0,.05l-.3.13-.76.33-1,.43-1,.43-.94.42-.65.28-.88.38-.66.28a4.11,4.11,0,0,1-.79.28c-.11,0-.24,0-.36.06a1.18,1.18,0,0,1-.49-.06,1.06,1.06,0,0,1-.43-.26.67.67,0,0,1-.21-.48,1.17,1.17,0,0,1,.06-.45,2.82,2.82,0,0,1,.33-.73c.12-.19.24-.37.38-.55l.3-.38Z"/></g><g id="B4zZdB.tif-2" data-name="B4zZdB.tif"><path d="M73.88,382.74c0,.11,0,.23-.07.34a5.78,5.78,0,0,0-.08.74,2.31,2.31,0,0,0,.13.93.73.73,0,0,0,.27.37.44.44,0,0,0,.24.07.46.46,0,0,0,.24-.08l.62-.36.51-.3.66-.39.82-.49.59-.35.65-.39.39-.23.15-.09h0s0,.06,0,.07l-.22.2-.53.5-.68.65-.69.65-.65.63-.46.42-.6.57-.46.43a3,3,0,0,1-.55.43,1.21,1.21,0,0,1-.25.08.39.39,0,0,1-.34-.08,1,1,0,0,1-.31-.4,1.92,1.92,0,0,1-.15-.72,5.09,5.09,0,0,1,.05-.69,7.51,7.51,0,0,1,.23-1.11c.08-.29.16-.57.26-.83s.14-.38.2-.57Z"/></g><path class="cls-11" d="M113.21,75.73c-5.6,3-8.6,10.37-15.07,10-3.45-.42-4.75-4.73-4.76-8.18,0-3-4.88-5-9-5.19l-.94,5.22L85.64,84,98.17,94.31l15.12-5.48A49.91,49.91,0,0,0,113.21,75.73Z"/><path class="cls-12" d="M116.3,66.65l-3.13-5.15L85.17,68l-.77,4.27c4.1.19,9,2.2,9,5.19,0,3.45,1.31,7.76,4.76,8.18,6.47.42,9.47-6.92,15.07-10a49.91,49.91,0,0,1,.08,13.1l1.68-.6Z"/><path class="cls-9" d="M80.41,63.74S69.63,60.31,67.5,70.67c0,0,11.23,10.75,10.81,15.06,0,0-3.44,1.3-2.55,12.51s-4.1,87.1-4.1,87.1L60.11,222.88l-6.91-4.29L51.5,229.8s6.48,4.3,28,2.52c0,0,45.26-3.13,57.74-13.94l-30.61,1.8L110,181.8l5.49-48.3,7.69-26.75,2.56-11.22,20.67-10s.85-7.33-2.61-9.91c0,0-22.45-14.17-27.2-14.59,0,0-2.58,0-2.15,2.16s1.33,15.09,0,19c0,0,0,5.18-.42,5.61s-15.51,5.64-15.51,5.64L88.22,83.12s-3.47-8.18-3.9-9.91C84.32,73.21,82.16,71.49,80.41,63.74Z"/><path class="cls-10" d="M72.23,69.36l6-3.89s.86-.87-2.15,0S70.07,67.64,72.23,69.36Z"/><path class="cls-10" d="M115.77,62.79a21,21,0,0,0,2.16,3c.86.86,9.92,2.13,18.14,13.75l5.18,2.15s2.58-1.74,2.15-2.6-11.66-7.3-11.66-7.3l-11.66-7.73S115.76,61.49,115.77,62.79Z"/><path class="cls-10" d="M137,89.47s-22.4,10-40.51,6.56c0,0,1.73,2.59,21.12,1.25l4.31-.88a24.7,24.7,0,0,1,.46,9.92L124.9,96Z"/><path class="cls-10" d="M79.17,86.16s-4.76.19-3.65,10.66,2,104.07-14.68,124.36c0,0-2.45,3.43.14,4.29,0,0,6.88-8.64,10.3-17.27s7.64-51.76,7.64-51.76l.31-49.15S77,94.36,77.9,93.49a6.4,6.4,0,0,1,2.15-1.3A19,19,0,0,0,79.18,90c-.43-.86,0-1.72,1.3-.86C80.48,89.18,82.63,87,79.17,86.16Z"/><path class="cls-10" d="M118.78,96.81l1.82,3s-10.69,34.52-11.11,42.29-6.74,61.24-6.74,61.24l-9.46,9.94,9-6.49v3l-5.16,6,5.6-3.46-1.7,11.21,1.73.86,14.41-101.79,7.15-23.07L123.61,96Z"/><path class="cls-10" d="M107.35,148.18a59.64,59.64,0,0,0-11.64.46,47.07,47.07,0,0,1-11.64,0A3,3,0,0,0,86.23,150c1.29,0,6.9,1.28,10.35.41s11.21-.46,11.21-.46S108.65,148.17,107.35,148.18Z"/><path class="cls-10" d="M77.61,150s11.21,3,11.22,3.86l-3.88.44a12.85,12.85,0,0,1-7.34-1.71Z"/><path class="cls-10" d="M76.36,168.09s8.21,6.87,13.38,6c0,0,1.29.43,0,.43s-6,.45-8.19-.84a54,54,0,0,1-5.62-4.3Z"/><path class="cls-10" d="M78.73,80.13s9.51,11.61,10.38,12l1.29-.86L78.29,78.4Z"/><path class="cls-13" d="M60.53,218.57s26.31,4.68,52.6-.56,27.58-6.54,27.58-6.54l.44,5.18S114,234,63.58,231.5L51.5,229.8l2.56-12.08Z"/><path class="cls-14" d="M44.44,182.74a133.08,133.08,0,0,1,6-16A58.55,58.55,0,0,0,44.44,182.74Z"/><path class="cls-14" d="M79.61,86.16S76.55,72.8,70.52,72.38L44.69,90.56s-3.85,10.79-5.57,12.51-.84,8.2-.84,8.2L24.11,135s-3.45,2.16-.84,9.91,6.08,18.53,7.38,20.68,6.05,6,6.06,8.18,6.92,11.62,6.92,11.62.3-1,.81-2.67a58.55,58.55,0,0,1,6-16c.92-1.9,2.24-3.3,2.67-4.24l.35-.47c-.19-.3-.72-1.15-1.34-2.32a10.55,10.55,0,0,1-6.36-6.17c-2.61-7.75,3.42-13.37,6-20.28,2.57-6,0-13.36,1.24-20.26,4.83,11,4.47,23,2.2,34.87a44.15,44.15,0,0,1-.79,13s-.35.4-.94,1.18l.08.12a3.15,3.15,0,0,0-.43.35,42,42,0,0,0-2.67,4.24,133.08,133.08,0,0,0-6,16c-.3,1.41-.58,1.14-.81,2.67,0,0,6.92,5.59,6.92,7.32s-4.72,10.36-4.71,13.37a53,53,0,0,0,1.32,8.62l13,10.32s12.47-13.4,16.64-68.16c0,0,2.45-56.49.28-61.66A7.28,7.28,0,0,1,79.61,86.16Z"/><path class="cls-15" d="M50,147.89l4.29-6.48a53.12,53.12,0,0,1,.84,6.42c2.27-11.85,2.63-23.91-2.2-34.87-1.28,6.9,1.33,14.22-1.24,20.26-2.57,6.91-8.6,12.53-6,20.28a10.55,10.55,0,0,0,6.36,6.17C50.46,156.62,48.27,151.38,50,147.89Z"/><path class="cls-14" d="M53.41,162l-.35.47a3.15,3.15,0,0,1,.43-.35Z"/><path class="cls-16" d="M170.67,122.15,158.09,92l-11.66-7.3s-19.81,9.1-24.55,9.12l.43,1.72-9,33.22s-8.51,46.15-8.45,71.16l-3.81,25.45s12.51,5.14,28-1.36c0,0,12.06-4.78,12.05-8.23L139.38,196s30.14-15.17,40.87-33.3C180.25,162.66,185,154.45,170.67,122.15ZM138,171.38c-1.31-8.19,7.26-29.33,7.26-29.33,4.32,3.87,8.66,17.22,8.66,17.22C149.21,164.46,138,171.38,138,171.38Z"/><path class="cls-17" d="M67.94,75.84l-11.62,10,6.49,7.74-9.92.89-7.31,4.76s-.86,2.16-.43,3-3-1.29-3-1.29-1.71,3.89,3.9,7.32c0,0,2.16,2.58.87,2.59S40.42,107,40.42,107s-1.29.87,0,2.16,6.91,5.15,6.91,5.15.87,1.73-.43,1.3-6.91-5.16-7.34-4.3S43,116.43,43,116.43s-2.58.44-3.45-.85c0,0-2.57,5.18,9.52,11.61,0,0,0,2.16-1.73,1.3s-9.93-7.3-10.37-9.89c0,0-1.71,3.89,6.93,11.19a2.43,2.43,0,0,1-2.59,0c-1.29-.86-7.35-7.31-6.92-9l-.85,3s.43,3.45,2.59,5.17c0,0,0,3-1.29,1.3s-3.46-4.31-3.46-4.31l-2.57,3.89-2,.55,11.46-19.11s-.58-6,1.21-8.63,5.2-12.08,5.2-12.08L69.87,72.91Z"/><path class="cls-17" d="M25.1,144.26a.43.43,0,0,1,0-.4A5.24,5.24,0,0,1,31.45,141c3.51.95,8.94,11.34,12.75,17.72A6.26,6.26,0,0,1,42.5,167h0a3.15,3.15,0,0,1-4.55-.94C34.75,160.73,28.08,149.5,25.1,144.26Z"/><path class="cls-17" d="M63.52,206.92s-3.9-9.47-1.31-7.76a17,17,0,0,1,3.89,3.44Z"/><path class="cls-17" d="M65.65,196.57s-6.49-7.31-3-9.48c0,0,5.61,3,5.62,5.59A13.52,13.52,0,0,1,67,197.86Z"/><path class="cls-17" d="M63,181.92l7.34,6s1.72-4.31.42-5.6-5.2-9-5.2-9Z"/><path class="cls-18" d="M136.27,160.18s12.8-55.22,12.82-47.89-2.56,12.08,0,17.68,9.53,16.79,10.39,18.94,6.91,4.29,4.33,5.16-23.67,18.6-23.67,18.6l14.53-14.52-9.87-17.83s-7,19.71-6.91,29.91Z"/><path class="cls-18" d="M146.87,86.86,124,95.53s-15,57.82-16.17,87.14-2.94,32.77-2.94,32.77l-2.68,9.26s5.2-36.43,4.33-41.17,5.9-55.63,11-65.56l5.54-23.3L146.3,85Z"/><path class="cls-18" d="M138.52,196.82,130.76,199s4.8,24.13-15,26.76a34.4,34.4,0,0,0,25.41-10L139.38,196Z"/><path class="cls-18" d="M132,174.85s-3.42,11.22,0,19l2.16,1.29s-3.9-9.48-.9-14.23l2.14-7.77Z"/><path class="cls-18" d="M44.06,185.41s1.7-12.07,9.44-20.72c0,0-6,12.52-6,17.7,0,0-1.72,3.88,2.6,6l.87,3.87Z"/><path class="cls-18" d="M120.73,151.59s-.79,29.75,4.84,42.68c0,0,.85-5.61.42-7.77S122.5,173.15,120.73,151.59Z"/><path class="cls-19" d="M78.19,37s1.34,16.81.91,17.68a7.14,7.14,0,0,1,1.3,2.58c0,.86-.42,6.47,0,8.19s4.26,9.21,4.26,9.21,3.6,9.48,4.43,9.83,8.18,2.48,12,.31a36.62,36.62,0,0,0,7.74-6.48s4.73-6.91,5.15-12.52l.42-3.88s11.19-9.08,4.27-15.1c0,0-6.39,2.06-6.63,6.43L111,43.4l-3.89-6.89Z"/><path class="cls-14" d="M79.63,55.71a6,6,0,0,0,3.35,2c2.16.43,6,.85,6,.85v-.86l-9.62-3Z"/><path class="cls-14" d="M94.63,59.39a49.23,49.23,0,0,1,11.64-1.75l-.44-.86-3-.43-7.32,1.74Z"/><path class="cls-14" d="M113.19,66.67l-.44-3.87-.87-.87c-.82,15.53-9.44,16.84-9.44,16.84l-.44-3V74l-1.3-.43H97.25l-2.16-.85H86.9l-1.72.43-4.41-6.56L85.05,76l4,8.41,2.5.76,7.27.4,5.51-2.69s2.81-2.83,4.41-4.19,4.49-9.11,4.49-9.11Zm-12,12.54L99,81.37a9.75,9.75,0,0,1-4.31,1.3c-2.16,0-3,.44-4.32-1.28s-3-3.87-3-3.87l-.87-1.29v-.87l3-.87,4.31-.44L99,75.33l1.73.86S101.58,78.78,101.15,79.21Z"/><path class="cls-20" d="M87.34,76.22s3,1.72,4.32,1.72,3.88.42,5.17,0,3.45-1.3,3.45-1.3l-5.18,0H91.65l-3-.85H87.34Z"/><path class="cls-21" d="M87.34,75.36a5.6,5.6,0,0,1,3.45-.44,18.62,18.62,0,0,0,3.88.42H97.8l1.9.5.58.78-9.1,0-3.41-.79Z"/><path class="cls-22" d="M114.88,54.6s.43-2.59,1.29-3,1.71-3.89,3-2.6a2.72,2.72,0,0,1,.44,3s.43,0-.43-.86l-.87-.86-1.29.86.43.86s1.73.86,1.73,1.29-.43,1.73-.86,1.3a6.19,6.19,0,0,1-.86-1.29s-1.3-.43-1.3,0a4.42,4.42,0,0,1-.43,1.3Z"/><path class="cls-23" d="M79.5,43l0,8.2s.41-7.77,2.57-7.77a37.39,37.39,0,0,1,6,.85s-4.33-5.17-6.91-4.73S79.5,43,79.5,43Z"/><path class="cls-24" d="M89.46,62A26.87,26.87,0,0,1,89,67.17c-.42,1.29-2.58,2.16,0,3a17.18,17.18,0,0,0,1.29-3.88,32.7,32.7,0,0,0,.41-5.18A1.55,1.55,0,0,0,89.46,62Z"/><path class="cls-11" d="M88.64,66.38S86.49,68.11,87.36,69a1.32,1.32,0,0,0,.86-.44,7.18,7.18,0,0,0,.85-2.15Z"/><path class="cls-11" d="M95.08,67.15a1.55,1.55,0,0,1,1.3.86c.43.86.43,1.72.86,1.29s0-.86,0-1.29,0-.87-1.3-.86Z"/><path class="cls-25" d="M92.94,71.9s2.58,0,3-1.3c.3-.92.86,0,.86,0s-1.29,1.72-2.58,1.73S92.94,71.9,92.94,71.9Z"/><path class="cls-23" d="M93.79,70.17s2.59.43,2.16-.87-1.3-.42-1.3-.42l-.87-2.59s-.86,0-.86.43A10.14,10.14,0,0,0,93.79,70.17Z"/><path class="cls-15" d="M91.08,16.72s-9.91,5.62-12.49,7.79S73,28,73.88,35.73c0,0,0,1.29,3,1.72,0,0,.45,7.32,1.32,10.34,0,0,.83-10.35,1.7-9.92s3,.85,4.74,1.71,5.18,1.71,7.77.85,8.62-2.18,9.48-1.32,6.47,1.71,6.47,3-1.27,6.47-.41,7.76c0,0,1.72-1.3,3,0s.88,6.47.88,6.47L114,51.15s2.58-3.89,3.44-3.89a1.88,1.88,0,0,0,1.29-.43s.85-6.9.42-7.76-.88-6.47-.88-6.47l.86-.86s.42-4.32-.44-4.31a1.9,1.9,0,0,1-1.3-.43s-.45-6.9-6.05-8.18L110,15.37l-4.31.88-3.45-.86-1.72.44L95,16.27l-2.15.44Z"/></g></svg>