<svg xmlns="http://www.w3.org/2000/svg" viewBox="0 0 85.36 83.75"><defs><style>.cls-1{fill:#333;}.cls-2{fill:#fff;}</style></defs><title>vimeo</title><g id="vimeo"><g id="JGnMVF.tif"><path class="cls-1" d="M42.49,1.87c22.53,0,40.19,18,40.14,40.67,0,21.62-18.29,39.51-40.24,39.48a40.08,40.08,0,1,1,.1-80.15Zm3.65,30.72a9.44,9.44,0,0,0,1.12-.11c4.19-.8,6.13,1.18,4.48,5.08a45.46,45.46,0,0,1-5.16,8.65c-1.36,1.89-2.58,1.6-3.51-.6a28.63,28.63,0,0,1-1.61-5.27C40.61,36.2,40.11,32,39.09,27.9c-1.31-5.21-5.08-6.65-9.39-3.55-3.54,2.54-6.75,5.53-10.18,8.38l2.16,2.71c4.75-2.53,5.47-2.24,7.27,2.9.23.65.42,1.32.61,2,1.19,4.29,2.23,8.63,3.63,12.85a27.26,27.26,0,0,0,3.32,6.49A4.29,4.29,0,0,0,42,61.3,23.73,23.73,0,0,0,48,58,64,64,0,0,0,63.47,37.76,15.62,15.62,0,0,0,65,27.46a6,6,0,0,0-5.23-5.09A12,12,0,0,0,46.14,32.59Z"/><path class="cls-2" d="M46.14,32.59A12,12,0,0,1,59.78,22.37,6,6,0,0,1,65,27.46a15.62,15.62,0,0,1-1.54,10.3A64,64,0,0,1,48,58a23.73,23.73,0,0,1-6,3.33,4.29,4.29,0,0,1-5.52-1.64,27.26,27.26,0,0,1-3.32-6.49c-1.4-4.22-2.44-8.56-3.63-12.85-.19-.66-.38-1.33-.61-2-1.8-5.14-2.52-5.43-7.27-2.9l-2.16-2.71c3.43-2.85,6.64-5.84,10.18-8.38,4.31-3.1,8.08-1.66,9.39,3.55,1,4.09,1.52,8.3,2.37,12.44a28.63,28.63,0,0,0,1.61,5.27c.93,2.2,2.15,2.49,3.51.6a45.46,45.46,0,0,0,5.16-8.65c1.65-3.9-.29-5.88-4.48-5.08A9.44,9.44,0,0,1,46.14,32.59Z"/></g></g></svg>